<svg width="34" height="34" viewBox="0 0 34 34" fill="none" xmlns="http://www.w3.org/2000/svg">
<path d="M28.3332 5.4927H23.7999V3.40039H21.5332V5.4927H12.4666V3.40039H10.1999V5.4927H5.66657C4.4199 5.4927 3.3999 6.43424 3.3999 7.58501V28.5081C3.3999 29.6588 4.4199 30.6004 5.66657 30.6004H28.3332C29.5799 30.6004 30.5999 29.6588 30.5999 28.5081V7.58501C30.5999 6.43424 29.5799 5.4927 28.3332 5.4927ZM28.3332 28.5081H5.66657V13.8619H28.3332V28.5081ZM28.3332 11.7696H5.66657V7.58501H10.1999V9.67731H12.4666V7.58501H21.5332V9.67731H23.7999V7.58501H28.3332V11.7696Z" fill="#1A141F"/>
</svg>
