<svg width="24" height="24" viewBox="0 0 24 24" fill="none" xmlns="http://www.w3.org/2000/svg">
<path fill-rule="evenodd" clip-rule="evenodd" d="M16.5299 4.80318L14.5031 4.80078C12.2279 4.80078 10.7555 6.19278 10.7555 8.34438V9.97878H8.7191C8.5427 9.97878 8.3999 10.1108 8.3999 10.2728V12.6404C8.3999 12.8024 8.5427 12.9332 8.7191 12.9332H10.7555V18.9068C10.7555 19.07 10.8995 19.2008 11.0747 19.2008H13.7327C13.9091 19.2008 14.0507 19.0688 14.0507 18.9068V12.9332H16.4339C16.6091 12.9332 16.7519 12.8012 16.7519 12.6404V10.2728C16.7517 10.2337 16.7433 10.195 16.7274 10.1593C16.7115 10.1236 16.6884 10.0915 16.6595 10.0652C16.5978 10.0091 16.5173 9.97827 16.4339 9.97878H14.0519V8.59278C14.0519 7.92678 14.2247 7.58838 15.1655 7.58838H16.5311C16.7063 7.58838 16.8491 7.45638 16.8491 7.29438V5.09718C16.8491 4.93518 16.7063 4.80438 16.5311 4.80318H16.5299Z" fill="white"/>
</svg>
