<svg width="245" height="164" viewBox="0 0 245 164" fill="none" xmlns="http://www.w3.org/2000/svg">
<path d="M216.772 103.229C216.772 53.2733 174.613 12.7773 122.612 12.7773C70.611 12.7773 28.4517 53.2733 28.4517 103.229C28.4517 104.837 28.4977 106.436 28.5853 108.021H216.643C216.731 106.431 216.777 104.837 216.777 103.229H216.772Z" stroke="#1D1D1B" stroke-width="0.529871" stroke-miterlimit="10"/>
<path d="M229.761 108.02H15.4631V139.254H229.761V108.02Z" stroke="#1D1D1B" stroke-width="0.921515" stroke-miterlimit="10"/>
<path d="M26.2999 92.1744C23.563 91.4648 20.605 92.3725 18.4532 94.5842C17.0157 96.0632 15.9559 98.0998 15.4122 100.339C15.2233 101.118 14.7349 102.859 15.1035 103.624C15.4952 104.431 16.7392 104.854 17.4165 104.974C18.4578 105.163 19.5452 104.937 20.4898 104.375C22.2268 103.339 23.5031 101.376 24.5122 99.3115C25.5627 97.1598 26.4151 94.7132 26.2953 92.1744H26.2999ZM24.9407 93.8009C24.8393 93.9668 24.7149 94.1603 24.5721 94.3814C24.4984 94.492 24.4246 94.6118 24.3417 94.7362C24.2588 94.8606 24.1666 94.985 24.0745 95.114C23.9823 95.2477 23.8856 95.3859 23.7842 95.5241C23.6782 95.6623 23.5722 95.8052 23.4617 95.9526C23.2405 96.2475 22.9963 96.547 22.7475 96.8511C22.4895 97.1506 22.2268 97.4685 21.9458 97.768C21.6693 98.0767 21.379 98.3716 21.0888 98.6711C20.7893 98.9568 20.499 99.2516 20.1949 99.5189C19.9 99.7953 19.5959 100.044 19.3056 100.293C19.0107 100.533 18.7251 100.763 18.4486 100.966C18.3104 101.067 18.1768 101.168 18.0432 101.265C17.9141 101.362 17.7805 101.445 17.6607 101.532C17.5363 101.615 17.4211 101.698 17.3059 101.772C17.1908 101.846 17.0848 101.91 16.9788 101.975C16.7761 102.104 16.5964 102.214 16.4489 102.297C16.1541 102.468 15.979 102.564 15.979 102.564C15.979 102.564 16.1402 102.445 16.4213 102.242C16.5641 102.141 16.7346 102.016 16.9281 101.864C17.1216 101.717 17.3428 101.551 17.5778 101.362C17.8174 101.178 18.0662 100.97 18.338 100.749C18.6053 100.533 18.8817 100.284 19.172 100.04C19.4577 99.7861 19.748 99.5235 20.0428 99.247C20.3377 98.9798 20.628 98.6849 20.9229 98.3992C21.2086 98.1043 21.5034 97.8141 21.7799 97.5146C22.061 97.2197 22.3282 96.9156 22.5908 96.6253C22.8442 96.3258 23.0977 96.0448 23.328 95.7637C23.5584 95.4827 23.775 95.22 23.9731 94.9712C24.1712 94.7224 24.3509 94.492 24.5076 94.2893C24.6642 94.0866 24.8025 93.9068 24.9131 93.7502C25.1342 93.4507 25.2632 93.2802 25.2632 93.2802C25.2632 93.2802 25.1526 93.4691 24.9499 93.7963L24.9407 93.8009Z" fill="#006900"/>
<path d="M12.7399 97.5839C11.2839 95.9804 9.37172 95.1419 7.45497 94.8931C5.53822 94.6443 3.60764 94.953 1.72314 95.4183C3.13306 99.3947 5.78242 102.652 8.96165 104.329C9.90159 104.822 10.8968 105.186 11.9105 105.186C12.9841 105.186 15.0436 104.67 14.9791 102.924C14.9008 100.897 13.9332 98.897 12.7445 97.5839H12.7399ZM13.4356 103.044C13.3481 103.03 13.2513 103.021 13.1453 103.002C13.0393 102.984 12.9242 102.961 12.8044 102.938C12.68 102.915 12.5509 102.892 12.4127 102.864C12.2745 102.837 12.1317 102.795 11.9842 102.758C11.8368 102.717 11.6801 102.684 11.5188 102.638C11.3576 102.588 11.1963 102.537 11.0258 102.482C10.8554 102.431 10.6849 102.367 10.5052 102.302C10.3301 102.238 10.1504 102.168 9.96609 102.095C9.6067 101.933 9.22889 101.781 8.86028 101.579C8.48707 101.394 8.11846 101.173 7.74525 100.961C7.38125 100.722 7.01725 100.5 6.67168 100.242C6.3169 100.003 5.98976 99.7218 5.66262 99.4684C5.50136 99.3348 5.3493 99.1965 5.19725 99.0629C5.0452 98.9293 4.89776 98.8003 4.75953 98.6621C4.62131 98.5284 4.48769 98.3948 4.35407 98.2704C4.22506 98.1414 4.10526 98.0078 3.99007 97.8834C3.87488 97.759 3.75969 97.6392 3.65832 97.524C3.55696 97.4042 3.4602 97.289 3.36805 97.183C3.2759 97.0771 3.19296 96.9757 3.11463 96.8835C3.03631 96.7914 2.9718 96.6992 2.90729 96.6209C2.65849 96.2984 2.52025 96.1095 2.52025 96.1095C2.52025 96.1095 2.67691 96.2753 2.94415 96.5702C3.01326 96.6439 3.08238 96.7269 3.16532 96.8144C3.24825 96.8974 3.3358 96.9895 3.43256 97.0909C3.52932 97.1876 3.63068 97.2936 3.73665 97.4042C3.84723 97.5102 3.96242 97.6208 4.08222 97.7359C4.20202 97.8511 4.32643 97.9755 4.46005 98.0953C4.59366 98.2151 4.73189 98.3349 4.87472 98.4639C5.01295 98.5929 5.165 98.7174 5.31705 98.8418C5.4691 98.9662 5.62576 99.0998 5.78242 99.2242C6.10495 99.4684 6.4367 99.7264 6.78687 99.966C7.12783 100.219 7.49183 100.436 7.85122 100.666C8.21522 100.878 8.57922 101.104 8.94783 101.284C9.31182 101.482 9.68043 101.648 10.0306 101.818C10.2103 101.897 10.3854 101.966 10.5559 102.044C10.7263 102.118 10.8968 102.191 11.0627 102.247C11.2286 102.307 11.3898 102.367 11.5465 102.426C11.7032 102.486 11.8552 102.528 12.0026 102.578C12.1501 102.625 12.2883 102.671 12.4219 102.712C12.5556 102.749 12.6846 102.786 12.8044 102.818C12.9242 102.85 13.0347 102.883 13.1407 102.915C13.2467 102.942 13.3434 102.961 13.4264 102.984C13.7766 103.062 13.9747 103.113 13.9747 103.113C13.9747 103.113 13.772 103.095 13.4218 103.048L13.4356 103.044Z" fill="#006900"/>
<path d="M12.6248 89.9271C11.6065 87.5819 9.94315 85.7296 8.09551 84.4671C5.60742 82.7715 2.79219 82.0389 0 81.5137C0.704959 84.1446 1.42374 86.8032 2.58485 89.1622C3.74596 91.5259 5.41851 93.5993 7.50113 94.484C8.64842 94.9724 9.9109 95.0461 11.0766 94.6637C11.8046 94.4287 13.0763 93.8942 13.3389 92.876C13.5693 91.9821 12.9473 90.6689 12.6201 89.9225L12.6248 89.9271ZM11.8875 92.5074C11.8 92.4797 11.7032 92.4521 11.6019 92.4152C11.5005 92.3783 11.3899 92.3369 11.2701 92.2954C11.1503 92.2539 11.0259 92.2032 10.8923 92.1572C10.7587 92.1065 10.6251 92.042 10.4776 91.9775C10.3348 91.913 10.1827 91.8531 10.0307 91.7747C9.87864 91.6964 9.72198 91.6181 9.55611 91.5351C9.39485 91.4568 9.22898 91.3647 9.0631 91.2679C8.89723 91.1712 8.72214 91.0744 8.55166 90.9684C8.2107 90.7473 7.85592 90.5307 7.51035 90.2681C7.16017 90.0239 6.81921 89.7382 6.47364 89.4664C6.1419 89.1669 5.80094 88.8812 5.48302 88.5679C5.16049 88.2684 4.861 87.9366 4.57072 87.6233C4.42789 87.4621 4.28965 87.3008 4.15603 87.1441C4.02241 86.9875 3.8888 86.8308 3.769 86.6695C3.64459 86.5129 3.5248 86.3608 3.40961 86.2088C3.29442 86.0567 3.19305 85.9047 3.08708 85.7619C2.98571 85.619 2.88434 85.4808 2.7968 85.3472C2.70926 85.209 2.62632 85.0799 2.54799 84.9601C2.46966 84.8403 2.39594 84.7252 2.33144 84.6192C2.26693 84.5132 2.20703 84.4118 2.15635 84.3197C1.9444 83.9603 1.82921 83.7483 1.82921 83.7483C1.82921 83.7483 1.96283 83.9373 2.19781 84.2782C2.25771 84.3612 2.31761 84.4579 2.39133 84.5593C2.46505 84.656 2.54339 84.762 2.62632 84.8772C2.70926 84.9924 2.8014 85.1122 2.89356 85.2366C2.99032 85.361 3.09169 85.49 3.20227 85.6282C3.30824 85.7619 3.41882 85.9093 3.53862 86.0475C3.65842 86.1904 3.78282 86.3332 3.90723 86.4852C4.03163 86.6373 4.16525 86.7847 4.30348 86.9322C4.44171 87.0796 4.57993 87.2409 4.72276 87.3929C5.01765 87.6924 5.31714 88.0057 5.63967 88.3006C5.95299 88.6093 6.28934 88.8904 6.62109 89.1807C6.96205 89.4525 7.29379 89.7382 7.63936 89.9824C7.98032 90.2404 8.32589 90.4708 8.65764 90.7012C8.82351 90.8118 8.99399 90.9085 9.15526 91.0145C9.31652 91.1205 9.47778 91.2172 9.63444 91.3048C9.7911 91.3969 9.94775 91.4845 10.0952 91.5674C10.2426 91.6503 10.3901 91.7241 10.5329 91.7978C10.6711 91.8715 10.8094 91.9406 10.9338 92.0051C11.0628 92.065 11.1872 92.1249 11.3024 92.1802C11.4176 92.2355 11.5282 92.2862 11.6249 92.3323C11.7263 92.3783 11.8184 92.4152 11.9014 92.4475C12.2377 92.5857 12.4312 92.6732 12.4312 92.6732C12.4312 92.6732 12.2331 92.6179 11.8875 92.512V92.5074Z" fill="#006900"/>
<path d="M22.5264 76.9238C20.1397 78.7807 17.7899 80.8403 16.0574 83.6232C14.7673 85.692 13.8412 88.2078 13.6615 90.8617C13.6062 91.7095 13.4541 93.2162 13.9564 93.9258C14.5277 94.7321 15.8639 94.5939 16.6103 94.451C17.8037 94.2253 18.9372 93.5341 19.831 92.5205C21.4529 90.6774 22.3191 87.9544 22.6232 85.2175C22.9273 82.476 22.7292 79.6884 22.5311 76.9284L22.5264 76.9238ZM22.0334 80.0846C21.9781 80.3058 21.8998 80.5684 21.8077 80.8725C21.7616 81.0246 21.7155 81.1858 21.6602 81.3563C21.6049 81.5268 21.545 81.6973 21.4805 81.8816C21.416 82.0613 21.3561 82.2548 21.2824 82.4483C21.2087 82.6418 21.1304 82.84 21.052 83.0473C20.9737 83.2546 20.8861 83.462 20.7986 83.6739C20.7111 83.8859 20.6189 84.1024 20.5175 84.319C20.3148 84.7475 20.1167 85.1944 19.8817 85.6275C19.6605 86.0699 19.4117 86.4984 19.1675 86.9361C18.9095 87.3554 18.6561 87.7839 18.3888 88.1801C18.1308 88.5902 17.8452 88.9588 17.5825 89.332C17.4489 89.5117 17.3107 89.6868 17.1771 89.8573C17.0434 90.0278 16.9144 90.1936 16.7808 90.3457C16.6472 90.5024 16.5182 90.6544 16.3938 90.7972C16.2694 90.9401 16.1403 91.0737 16.0206 91.2027C15.9008 91.3317 15.7856 91.4561 15.675 91.5713C15.5598 91.6819 15.4538 91.7879 15.3525 91.8892C15.1497 92.0874 14.9746 92.2624 14.8226 92.3915C14.5231 92.6587 14.3526 92.8108 14.3526 92.8108C14.3526 92.8108 14.5093 92.6357 14.7903 92.3408C14.9332 92.1933 15.099 92.009 15.288 91.7925C15.3847 91.6865 15.4815 91.5713 15.5874 91.4515C15.6888 91.3271 15.7994 91.1981 15.9146 91.0599C16.0252 90.9216 16.1496 90.7834 16.2648 90.6314C16.3846 90.4793 16.5043 90.3227 16.6334 90.1614C16.7624 90.0047 16.8868 89.8343 17.0112 89.6592C17.1402 89.4841 17.2692 89.309 17.4028 89.1247C17.6608 88.7515 17.9281 88.3737 18.1815 87.9682C18.4487 87.5719 18.6929 87.148 18.9464 86.7334C19.186 86.3049 19.4394 85.8856 19.6605 85.4478C19.8909 85.0193 20.1029 84.5862 20.3102 84.1669C20.407 83.955 20.5037 83.743 20.6005 83.5403C20.6972 83.3376 20.7894 83.1348 20.8723 82.9321C20.9553 82.734 21.0382 82.5405 21.1211 82.3516C21.1995 82.1626 21.2686 81.9783 21.3423 81.8032C21.4114 81.6282 21.4805 81.4577 21.545 81.2964C21.6049 81.1351 21.6648 80.9785 21.7155 80.8311C21.8261 80.5408 21.9182 80.2827 21.9874 80.0708C22.1302 79.6469 22.2177 79.4027 22.2177 79.4027C22.2177 79.4027 22.1532 79.6561 22.038 80.0938L22.0334 80.0846Z" fill="#006900"/>
<path d="M15.0851 79.5589C14.8961 76.6239 13.6844 73.887 12.0717 71.7491C10.4591 69.6112 8.45015 68.0077 6.39978 66.584C4.79173 70.1549 4.49224 74.6334 5.60267 78.5268C6.36292 81.19 7.77284 83.5445 9.56519 85.24C10.1826 85.8252 11.6294 87.2996 12.4403 87.1199C13.3065 86.9264 14.1497 84.9452 14.4722 84.0513C14.9745 82.6598 15.1818 81.0932 15.0851 79.5589ZM12.15 85.71C12.1316 85.4797 12.0994 85.2032 12.0579 84.8853C12.0395 84.7286 12.0164 84.5581 11.998 84.3784C11.9703 84.1987 11.9473 84.0144 11.9197 83.8209C11.892 83.6274 11.8644 83.4247 11.8275 83.2127C11.7906 83.0054 11.7538 82.7888 11.7169 82.5677C11.6801 82.3465 11.6386 82.1207 11.5925 81.8903C11.5464 81.66 11.5004 81.425 11.4543 81.1854C11.3483 80.7108 11.2423 80.2178 11.1133 79.7248C10.9981 79.2272 10.8507 78.7342 10.7125 78.2365C10.5604 77.7481 10.4176 77.2505 10.2517 76.7805C10.0951 76.3014 9.92458 75.8406 9.7587 75.3937C9.67116 75.1725 9.58362 74.9559 9.50068 74.744C9.41774 74.532 9.33481 74.3247 9.24726 74.1266C9.15972 73.9285 9.07678 73.7349 8.99845 73.546C8.92012 73.3571 8.83258 73.182 8.75425 73.0116C8.67592 72.8411 8.5976 72.6752 8.52848 72.5232C8.45476 72.3711 8.38104 72.2237 8.31653 72.0854C8.18291 71.809 8.06772 71.574 7.96174 71.3805C7.75901 70.9934 7.64383 70.7723 7.64383 70.7723C7.64383 70.7723 7.77745 70.9796 8.00322 71.3436C8.11841 71.5233 8.25203 71.7537 8.39947 72.0163C8.47319 72.1453 8.55612 72.2882 8.63906 72.4356C8.722 72.5831 8.80033 72.7443 8.88787 72.9102C8.97542 73.0761 9.06757 73.2512 9.15511 73.4308C9.24266 73.6152 9.3302 73.8087 9.42235 74.0022C9.5145 74.1957 9.60665 74.403 9.6942 74.615C9.78635 74.8269 9.8785 75.0389 9.96604 75.2647C10.1365 75.7116 10.3254 76.1724 10.4867 76.6561C10.6572 77.1307 10.8046 77.6329 10.9613 78.126C11.0949 78.6282 11.2423 79.1304 11.3575 79.6326C11.4865 80.1303 11.5787 80.6325 11.6801 81.1163C11.7261 81.3605 11.7676 81.6001 11.8045 81.8351C11.8459 82.07 11.8828 82.3004 11.9104 82.5262C11.9427 82.752 11.9703 82.9685 11.998 83.1805C12.0256 83.3924 12.0441 83.5998 12.0625 83.7979C12.0809 83.996 12.104 84.1849 12.1178 84.3646C12.1316 84.5443 12.1408 84.7194 12.15 84.8807C12.1731 85.2032 12.1869 85.4843 12.1961 85.7146C12.2099 86.18 12.2145 86.4426 12.2145 86.4426C12.2145 86.4426 12.1869 86.18 12.1408 85.7192L12.15 85.71Z" fill="#006900"/>
<path d="M228.692 100.339C228.149 98.0998 227.089 96.0632 225.651 94.5842C223.5 92.3725 220.542 91.4648 217.805 92.1744C217.685 94.7132 218.533 97.1598 219.588 99.3115C220.597 101.376 221.873 103.343 223.61 104.375C224.555 104.937 225.642 105.163 226.684 104.974C227.361 104.85 228.605 104.431 228.997 103.624C229.365 102.864 228.881 101.122 228.688 100.339H228.692ZM227.66 102.302C227.513 102.219 227.333 102.108 227.13 101.979C227.029 101.915 226.919 101.846 226.803 101.777C226.688 101.703 226.573 101.62 226.449 101.537C226.324 101.449 226.195 101.367 226.066 101.27C225.937 101.173 225.799 101.072 225.661 100.97C225.384 100.768 225.099 100.533 224.804 100.298C224.513 100.049 224.209 99.7999 223.914 99.5235C223.615 99.2562 223.32 98.9614 223.021 98.6757C222.73 98.3762 222.44 98.0813 222.164 97.7726C221.882 97.4731 221.62 97.1552 221.362 96.8557C221.108 96.547 220.864 96.2521 220.648 95.9572C220.537 95.8098 220.431 95.6669 220.325 95.5287C220.224 95.3905 220.127 95.2477 220.035 95.1186C219.943 94.985 219.851 94.8606 219.768 94.7408C219.685 94.6164 219.611 94.4966 219.537 94.386C219.39 94.1649 219.265 93.9714 219.169 93.8055C218.966 93.4784 218.855 93.2894 218.855 93.2894C218.855 93.2894 218.984 93.4599 219.205 93.7594C219.316 93.9115 219.45 94.0912 219.611 94.2985C219.768 94.5058 219.947 94.7362 220.145 94.9804C220.339 95.2292 220.56 95.4919 220.79 95.7729C221.021 96.054 221.274 96.335 221.528 96.6345C221.79 96.9248 222.058 97.2243 222.339 97.5238C222.615 97.8279 222.905 98.1136 223.196 98.4085C223.491 98.6941 223.776 98.989 224.076 99.2562C224.366 99.5327 224.661 99.7953 224.947 100.049C225.237 100.293 225.509 100.542 225.78 100.758C226.048 100.979 226.301 101.187 226.541 101.371C226.776 101.56 226.997 101.726 227.19 101.873C227.384 102.021 227.554 102.15 227.697 102.251C227.983 102.454 228.14 102.574 228.14 102.574C228.14 102.574 227.969 102.482 227.67 102.306L227.66 102.302Z" fill="#006900"/>
<path d="M236.654 94.8931C234.738 95.1419 232.825 95.9759 231.369 97.5839C230.181 98.8925 229.209 100.897 229.135 102.924C229.07 104.67 231.13 105.186 232.203 105.186C233.217 105.186 234.212 104.822 235.152 104.329C238.331 102.657 240.981 99.3947 242.391 95.4184C240.506 94.953 238.576 94.6489 236.659 94.8931H236.654ZM240.99 96.8836C240.912 96.9757 240.829 97.0771 240.737 97.1831C240.644 97.289 240.548 97.4042 240.446 97.524C240.345 97.6438 240.23 97.759 240.115 97.8834C239.999 98.0078 239.88 98.1414 239.751 98.2704C239.622 98.3994 239.483 98.5285 239.345 98.6621C239.207 98.8003 239.059 98.9293 238.907 99.0629C238.755 99.1966 238.603 99.3348 238.442 99.4684C238.12 99.7264 237.788 100.003 237.433 100.242C237.087 100.5 236.719 100.726 236.359 100.961C235.986 101.173 235.618 101.394 235.244 101.579C234.876 101.781 234.498 101.929 234.139 102.095C233.959 102.168 233.779 102.238 233.6 102.302C233.424 102.371 233.249 102.431 233.079 102.482C232.908 102.537 232.743 102.588 232.586 102.638C232.425 102.684 232.268 102.721 232.12 102.758C231.973 102.795 231.83 102.837 231.692 102.864C231.554 102.887 231.425 102.915 231.3 102.938C231.176 102.961 231.065 102.979 230.959 103.002C230.853 103.021 230.757 103.03 230.669 103.044C230.314 103.09 230.116 103.108 230.116 103.108C230.116 103.108 230.314 103.058 230.664 102.979C230.752 102.961 230.849 102.943 230.95 102.91C231.056 102.883 231.167 102.85 231.287 102.814C231.406 102.781 231.535 102.744 231.669 102.708C231.803 102.666 231.941 102.62 232.088 102.574C232.236 102.523 232.388 102.482 232.544 102.422C232.701 102.362 232.862 102.302 233.028 102.242C233.194 102.182 233.365 102.113 233.535 102.039C233.705 101.966 233.885 101.897 234.06 101.814C234.415 101.643 234.779 101.477 235.143 101.279C235.512 101.095 235.876 100.869 236.24 100.662C236.599 100.431 236.963 100.21 237.304 99.9614C237.654 99.7264 237.986 99.4638 238.308 99.2196C238.47 99.0952 238.622 98.9616 238.774 98.8372C238.926 98.7128 239.078 98.5884 239.216 98.4593C239.359 98.3349 239.497 98.2105 239.631 98.0907C239.764 97.9709 239.889 97.8465 240.009 97.7314C240.128 97.6162 240.244 97.5056 240.354 97.3996C240.46 97.289 240.562 97.1877 240.658 97.0863C240.755 96.9895 240.843 96.8974 240.926 96.8098C241.008 96.7223 241.082 96.6394 241.147 96.5656C241.414 96.2708 241.571 96.1049 241.571 96.1049C241.571 96.1049 241.432 96.2938 241.184 96.6163C241.119 96.6946 241.055 96.7868 240.976 96.879L240.99 96.8836Z" fill="#006900"/>
<path d="M236.009 84.4703C234.162 85.7328 232.503 87.5851 231.48 89.9303C231.153 90.6767 230.531 91.9899 230.761 92.8838C231.024 93.902 232.296 94.4365 233.024 94.6715C234.189 95.0493 235.452 94.9802 236.599 94.4918C238.682 93.6025 240.35 91.5291 241.515 89.17C242.681 86.811 243.395 84.1524 244.1 81.5215C241.313 82.0514 238.493 82.7794 236.005 84.4749L236.009 84.4703ZM241.783 84.6178C241.713 84.7237 241.644 84.8389 241.566 84.9587C241.488 85.0831 241.405 85.2121 241.317 85.3458C241.225 85.4794 241.128 85.613 241.027 85.7604C240.926 85.9033 240.82 86.0553 240.704 86.2074C240.589 86.3548 240.469 86.5069 240.345 86.6681C240.225 86.8294 240.092 86.9861 239.958 87.1427C239.824 87.2994 239.686 87.4653 239.543 87.6219C239.248 87.9306 238.953 88.2624 238.631 88.5665C238.318 88.8844 237.977 89.1701 237.64 89.4649C237.295 89.7368 236.954 90.0225 236.604 90.2667C236.258 90.5293 235.903 90.7458 235.562 90.967C235.392 91.073 235.221 91.1697 235.051 91.2665C234.885 91.3633 234.719 91.4554 234.558 91.5337C234.397 91.6167 234.24 91.695 234.083 91.7733C233.931 91.8471 233.779 91.9116 233.636 91.9761C233.493 92.036 233.355 92.1005 233.222 92.1558C233.088 92.2064 232.964 92.2525 232.844 92.294C232.724 92.3355 232.613 92.3769 232.512 92.4138C232.411 92.4506 232.314 92.4783 232.226 92.5059C231.881 92.6119 231.683 92.6672 231.683 92.6672C231.683 92.6672 231.876 92.5843 232.213 92.4414C232.296 92.4046 232.392 92.3723 232.489 92.3262C232.59 92.2802 232.696 92.2295 232.812 92.1742C232.927 92.1189 233.051 92.0636 233.18 91.9991C233.309 91.9346 233.443 91.8655 233.581 91.7918C233.719 91.718 233.867 91.6489 234.019 91.5614C234.166 91.4784 234.323 91.3909 234.48 91.2988C234.641 91.2112 234.797 91.1145 234.959 91.0085C235.12 90.9025 235.29 90.8057 235.456 90.6952C235.788 90.4694 236.134 90.239 236.475 89.9764C236.82 89.7322 237.157 89.4465 237.493 89.1747C237.825 88.8844 238.161 88.6033 238.474 88.2946C238.797 87.9997 239.096 87.6864 239.391 87.3869C239.539 87.2349 239.672 87.0736 239.81 86.9262C239.949 86.7787 240.082 86.6313 240.207 86.4792C240.336 86.3318 240.456 86.1843 240.575 86.0415C240.695 85.8987 240.801 85.7558 240.912 85.6222C241.018 85.4886 241.124 85.355 241.22 85.2306C241.317 85.1016 241.405 84.9818 241.488 84.8712C241.571 84.756 241.649 84.65 241.723 84.5533C241.796 84.4519 241.856 84.3551 241.916 84.2722C242.147 83.9312 242.285 83.7423 242.285 83.7423C242.285 83.7423 242.17 83.9497 241.958 84.3137C241.902 84.4012 241.847 84.5072 241.783 84.6132V84.6178Z" fill="#006900"/>
<path d="M230.443 90.8559C230.264 88.2065 229.337 85.6862 228.047 83.6174C226.31 80.8344 223.965 78.7794 221.578 76.918C221.38 79.6779 221.177 82.4701 221.486 85.207C221.79 87.9485 222.656 90.6716 224.278 92.51C225.172 93.5237 226.306 94.2102 227.499 94.4406C228.245 94.5834 229.582 94.717 230.153 93.9153C230.651 93.2104 230.503 91.6991 230.448 90.8513L230.443 90.8559ZM229.282 92.381C229.13 92.2474 228.955 92.0769 228.752 91.8788C228.651 91.7774 228.545 91.676 228.43 91.5608C228.319 91.4457 228.204 91.3213 228.084 91.1922C227.964 91.0632 227.84 90.9296 227.711 90.7868C227.587 90.6393 227.458 90.4873 227.324 90.3352C227.19 90.1832 227.057 90.0173 226.928 89.8468C226.794 89.6763 226.656 89.5013 226.522 89.3216C226.26 88.953 225.974 88.5797 225.716 88.1697C225.444 87.7734 225.195 87.3449 224.937 86.9256C224.693 86.4925 224.444 86.064 224.223 85.6171C223.988 85.184 223.79 84.7324 223.587 84.3085C223.49 84.092 223.398 83.8754 223.306 83.6635C223.214 83.4515 223.126 83.2442 223.053 83.0368C222.974 82.8295 222.896 82.6314 222.822 82.4378C222.749 82.2443 222.689 82.0508 222.624 81.8711C222.56 81.6868 222.5 81.5163 222.445 81.3459C222.394 81.1754 222.343 81.0141 222.297 80.8621C222.205 80.5626 222.127 80.2953 222.071 80.0742C221.956 79.6318 221.892 79.383 221.892 79.383C221.892 79.383 221.979 79.6272 222.122 80.0511C222.191 80.2677 222.283 80.5211 222.394 80.8114C222.449 80.9588 222.504 81.1109 222.564 81.2767C222.629 81.438 222.693 81.6085 222.767 81.7836C222.836 81.9587 222.91 82.1476 222.988 82.3319C223.067 82.5208 223.15 82.7143 223.237 82.9124C223.32 83.1152 223.412 83.3133 223.509 83.5206C223.606 83.728 223.698 83.9353 223.799 84.1473C224.007 84.5665 224.218 84.9997 224.449 85.4282C224.67 85.8659 224.919 86.2852 225.163 86.7137C225.416 87.1284 225.661 87.5569 225.928 87.9485C226.186 88.354 226.453 88.7318 226.707 89.105C226.84 89.2847 226.969 89.4644 227.098 89.6395C227.223 89.8146 227.352 89.9851 227.476 90.1417C227.6 90.303 227.725 90.4596 227.845 90.6117C227.964 90.7637 228.084 90.902 228.195 91.0402C228.31 91.1784 228.416 91.3074 228.522 91.4318C228.628 91.5516 228.729 91.6668 228.821 91.7728C229.01 91.9894 229.176 92.1737 229.319 92.3211C229.6 92.6206 229.757 92.7911 229.757 92.7911C229.757 92.7911 229.586 92.639 229.287 92.3718L229.282 92.381Z" fill="#006900"/>
<path d="M237.705 66.584C235.654 68.0077 233.65 69.6112 232.033 71.7491C230.416 73.887 229.208 76.6239 229.019 79.5589C228.923 81.0886 229.13 82.6552 229.632 84.0513C229.955 84.9452 230.798 86.9264 231.664 87.1199C232.475 87.2996 233.922 85.8252 234.539 85.24C236.332 83.5445 237.742 81.19 238.502 78.5268C239.612 74.6334 239.313 70.1549 237.705 66.584ZM236.147 71.3759C236.041 71.5648 235.926 71.8044 235.793 72.0808C235.723 72.219 235.654 72.3619 235.581 72.5185C235.507 72.6752 235.433 72.8365 235.355 73.0069C235.277 73.1774 235.194 73.3525 235.111 73.5414C235.032 73.7303 234.949 73.9239 234.862 74.122C234.774 74.3201 234.691 74.5274 234.608 74.7394C234.526 74.9513 234.438 75.1679 234.35 75.3891C234.185 75.836 234.014 76.2967 233.857 76.7759C233.692 77.2505 233.549 77.7435 233.397 78.2319C233.258 78.7296 233.111 79.2226 232.996 79.7202C232.867 80.2132 232.761 80.7062 232.655 81.1808C232.609 81.4204 232.563 81.6554 232.517 81.8857C232.471 82.1161 232.424 82.3419 232.392 82.5631C232.355 82.7842 232.318 83.0008 232.282 83.2081C232.245 83.4155 232.222 83.6182 232.189 83.8163C232.162 84.0098 232.134 84.1987 232.111 84.3738C232.088 84.5535 232.07 84.7194 232.051 84.8807C232.01 85.1986 231.978 85.475 231.959 85.7054C231.918 86.1662 231.885 86.4288 231.885 86.4288C231.885 86.4288 231.89 86.1616 231.904 85.7008C231.908 85.4704 231.927 85.1894 231.95 84.8668C231.959 84.7056 231.973 84.5351 231.982 84.3508C231.996 84.1711 232.019 83.9822 232.037 83.7841C232.06 83.5859 232.074 83.3786 232.102 83.1666C232.13 82.9547 232.162 82.7381 232.189 82.5124C232.217 82.2866 232.254 82.0562 232.295 81.8212C232.337 81.5863 232.374 81.3467 232.42 81.1025C232.521 80.6187 232.613 80.1164 232.742 79.6188C232.858 79.1166 233 78.6144 233.139 78.1121C233.295 77.6191 233.443 77.1169 233.613 76.6423C233.77 76.1585 233.959 75.7024 234.134 75.2508C234.226 75.0297 234.318 74.8131 234.406 74.6012C234.493 74.3892 234.585 74.1865 234.678 73.9884C234.77 73.7902 234.862 73.6013 234.945 73.417C235.032 73.2327 235.125 73.0622 235.212 72.8964C235.3 72.7305 235.378 72.5692 235.461 72.4218C235.544 72.2743 235.627 72.1361 235.7 72.0025C235.848 71.7399 235.982 71.5141 236.097 71.3298C236.322 70.9658 236.456 70.7584 236.456 70.7584C236.456 70.7584 236.341 70.9796 236.138 71.3666L236.147 71.3759Z" fill="#006900"/>
<path d="M26.1296 81.5127C26.1296 81.5127 44.993 6.25724 122.612 6.25724C200.231 6.25724 219.712 81.8307 219.712 81.8307C219.712 81.8307 201.466 1 122.612 1C43.7582 1 26.1296 81.5127 26.1296 81.5127Z" fill="#1D1D1B" stroke="#1D1D1B" stroke-width="0.460757" stroke-miterlimit="10"/>
<path d="M62.7322 132.661C62.7506 132.896 62.6262 133.016 62.3682 133.016C62.2023 133.016 61.7277 132.919 60.9352 132.73C60.1473 132.541 59.6589 132.408 59.4792 132.339C57.6592 133.053 55.9084 133.412 54.2358 133.412C51.5404 133.412 49.3334 132.514 47.6055 130.717C45.8961 128.948 45.0437 126.713 45.0437 124.008C45.0437 121.304 45.8731 118.954 47.5272 117.129C49.2366 115.245 51.4528 114.305 54.1805 114.305C55.5075 114.305 56.7515 114.558 57.9219 115.065C59.1843 115.622 60.1796 116.406 60.903 117.419C61.0504 117.627 61.1241 117.779 61.1241 117.866C61.1241 118.147 60.7325 118.769 59.9538 119.742C59.1751 120.714 58.6683 121.198 58.4425 121.198C58.3918 121.198 58.1891 121.018 57.8389 120.663C57.4104 120.235 56.9773 119.903 56.5304 119.668C55.8669 119.313 55.1343 119.133 54.3326 119.133C53.024 119.133 51.9873 119.622 51.2225 120.599C50.5083 121.497 50.1489 122.617 50.1489 123.958C50.1489 125.377 50.5175 126.501 51.2593 127.33C52.0242 128.183 53.1116 128.611 54.5169 128.611C55.4061 128.611 56.4014 128.39 57.498 127.943C57.4703 127.657 57.392 126.925 57.263 125.745C57.1478 124.838 57.0925 124.105 57.0925 123.547C57.0925 123.382 57.1478 123.28 57.263 123.248C57.3045 123.23 57.3782 123.22 57.4703 123.22C57.7237 123.22 58.1062 123.243 58.613 123.294C59.1244 123.34 59.5069 123.368 59.7695 123.368C60.0506 123.368 60.4653 123.349 61.0228 123.308C61.5803 123.266 61.9996 123.248 62.276 123.248C62.4926 123.248 62.6032 123.391 62.6032 123.681C62.6032 124.1 62.5801 124.732 62.5294 125.575C62.4834 126.423 62.4557 127.054 62.4557 127.469C62.4557 128.593 62.5387 130.275 62.7045 132.514L62.7184 132.657L62.7322 132.661Z" fill="#006900"/>
<path d="M80.1489 132.952C80.1489 133.011 80.0614 133.057 79.8863 133.081C79.5545 133.131 78.7206 133.159 77.389 133.159C76.2463 133.159 75.4722 133.131 75.0621 133.081C74.8686 133.053 74.7627 133.034 74.735 133.016C74.6843 132.988 74.6198 132.901 74.5507 132.753C74.4217 132.412 74.2282 131.91 73.9748 131.238C73.6338 130.367 73.1039 129.081 72.3805 127.381C72.2239 127.04 71.8599 126.856 71.2932 126.819C71.5558 126.837 71.1042 126.846 69.9477 126.846C69.8187 126.846 69.7496 127.068 69.7496 127.515C69.7496 128.109 69.8049 128.994 69.9109 130.169C70.0215 131.343 70.0722 132.228 70.0722 132.823C70.0722 132.97 70.0307 133.058 69.9524 133.085L69.5883 133.113C69.0723 133.15 68.2706 133.163 67.1832 133.163C65.9345 133.163 65.1881 133.136 64.9347 133.085C64.6813 133.034 64.5569 132.896 64.5569 132.68C64.5569 131.721 64.603 130.275 64.6951 128.339C64.7873 126.404 64.8333 124.953 64.8333 123.985C64.8333 120.299 64.7504 117.419 64.5845 115.355L64.5707 115.171C64.5615 115.023 64.6997 114.922 64.9808 114.871C65.2618 114.821 66.5934 114.765 68.9755 114.715C70.5882 114.678 71.8737 114.664 72.8321 114.664C74.8179 114.664 76.4398 115.111 77.6977 116.009C79.1168 117.023 79.831 118.479 79.831 120.391C79.831 121.663 79.6467 122.681 79.2827 123.437C78.9187 124.197 78.2414 124.934 77.2554 125.649C77.0526 125.787 76.9559 125.92 76.9559 126.04C76.9559 126.031 77.4857 127.123 78.5501 129.321C79.6144 131.519 80.1443 132.73 80.1443 132.956L80.1489 132.952ZM74.6567 121.221C74.6567 120.156 74.3065 119.419 73.6108 119.014C73.0717 118.7 72.2239 118.544 71.0766 118.544C70.2472 118.544 69.8095 118.668 69.7542 118.921C69.7035 119.216 69.6759 120.073 69.6759 121.483C69.6759 121.686 69.6759 121.981 69.6897 122.373C69.7035 122.764 69.7035 123.059 69.7035 123.248C69.7035 123.294 69.8418 123.336 70.1228 123.377C70.6527 123.455 71.2102 123.497 71.7954 123.497C73.7029 123.497 74.6567 122.737 74.6567 121.221Z" fill="#006900"/>
<path d="M99.7862 123.93C99.7862 126.648 98.92 128.929 97.183 130.767C95.4136 132.634 93.1744 133.564 90.4605 133.564C87.7466 133.564 85.5304 132.624 83.7519 130.74C82.0102 128.901 81.1348 126.63 81.1348 123.93C81.1348 121.23 82.0056 118.94 83.7519 117.092C85.5304 115.198 87.7651 114.254 90.4605 114.254C93.1559 114.254 95.3676 115.198 97.1553 117.092C98.9062 118.958 99.7816 121.234 99.7816 123.93H99.7862ZM94.8285 123.902C94.8285 122.594 94.4322 121.483 93.6397 120.566C92.8104 119.608 91.7506 119.129 90.4605 119.129C89.1704 119.129 88.189 119.626 87.3366 120.617C86.5072 121.575 86.0925 122.677 86.0925 123.925C86.0925 125.257 86.4796 126.372 87.2582 127.261C88.0784 128.192 89.1473 128.662 90.4605 128.662C91.6907 128.662 92.7366 128.169 93.5983 127.183C94.4184 126.243 94.8285 125.146 94.8285 123.902Z" fill="#006900"/>
<path d="M44.1912 132.753C44.1912 132.909 44.0806 133.02 43.8641 133.08C43.6014 133.149 42.7905 133.186 41.4313 133.186C40.1826 133.186 39.3809 133.149 39.0261 133.08C38.7312 133.02 38.5423 132.822 38.464 132.49C38.1691 131.237 37.9387 130.564 37.7729 130.477C37.6346 130.417 36.4643 130.384 34.2711 130.384C32.7875 130.384 31.9996 130.426 31.9028 130.504C31.7554 130.642 31.5895 131.112 31.4052 131.905C31.2393 132.628 31.0412 133.02 30.8016 133.08C30.5067 133.149 29.5115 133.186 27.8205 133.186C26.4889 133.186 25.8208 133.061 25.8208 132.808C25.8208 132.582 26.8068 129.795 28.7743 124.455C30.9076 118.677 32.0687 115.497 32.253 114.921C32.3589 114.59 32.4787 114.424 32.617 114.424C32.852 114.424 33.216 114.447 33.709 114.488C34.202 114.53 34.5706 114.553 34.8148 114.553C35.059 114.553 35.3953 114.539 35.8561 114.507C36.3122 114.475 36.6578 114.461 36.8836 114.461C37.0495 114.461 37.2015 114.604 37.3397 114.894C37.7682 115.811 39.0123 118.948 41.0811 124.307C43.1545 129.703 44.1912 132.518 44.1912 132.753ZM34.9208 120.842C34.7365 121.225 34.4277 122.059 33.9946 123.339C33.5247 124.699 33.2897 125.496 33.2897 125.731C33.2897 125.887 33.5523 125.975 34.073 125.993C34.3448 126.012 34.7871 126.021 35.4046 126.021C35.9805 126.021 36.2984 125.952 36.3583 125.814C36.3768 125.772 36.386 125.708 36.386 125.629C36.386 125.344 36.1832 124.547 35.7824 123.247C35.3907 121.994 35.1005 121.192 34.9208 120.842Z" fill="#006900"/>
<path d="M116.701 132.297C115.314 133.029 113.59 133.393 111.522 133.393C108.854 133.393 106.721 132.536 105.117 130.817C103.514 129.099 102.712 126.846 102.712 124.058C102.712 121.059 103.615 118.635 105.417 116.787C107.223 114.94 109.508 114.014 112.282 114.014C114.06 114.014 115.535 114.272 116.701 114.783V117.124C115.36 116.373 113.876 116 112.254 116C110.102 116 108.356 116.718 107.015 118.156C105.679 119.593 105.006 121.515 105.006 123.92C105.006 126.325 105.633 128.025 106.882 129.38C108.13 130.735 109.775 131.412 111.803 131.412C113.687 131.412 115.314 130.993 116.691 130.159V132.287L116.701 132.297Z" fill="black"/>
<path d="M128.072 133.394C125.414 133.394 123.285 132.518 121.686 130.767C120.087 129.016 119.286 126.736 119.286 123.93C119.286 120.912 120.101 118.507 121.732 116.714C123.363 114.917 125.58 114.023 128.386 114.023C130.975 114.023 133.058 114.894 134.643 116.636C136.223 118.378 137.016 120.658 137.016 123.474C137.016 126.533 136.205 128.952 134.583 130.731C132.961 132.509 130.791 133.398 128.072 133.398V133.394ZM128.229 116.005C126.257 116.005 124.658 116.714 123.432 118.138C122.207 119.562 121.589 121.423 121.589 123.732C121.589 126.04 122.188 127.901 123.386 129.307C124.584 130.712 126.146 131.417 128.072 131.417C130.127 131.417 131.749 130.744 132.938 129.404C134.122 128.063 134.716 126.183 134.716 123.768C134.716 121.354 134.14 119.382 132.989 118.027C131.837 116.677 130.252 116 128.229 116V116.005Z" fill="black"/>
<path d="M155.819 133.082H153.124L143.475 118.139C143.231 117.766 143.028 117.37 142.872 116.964H142.794C142.863 117.365 142.899 118.222 142.899 119.54V133.086H140.702V114.338H143.554L152.939 129.045C153.331 129.653 153.584 130.073 153.7 130.303H153.75C153.663 129.764 153.621 128.843 153.621 127.543V114.338H155.819V133.086V133.082Z" fill="black"/>
<path d="M170.669 133.08H160.731V114.332H170.25V116.318H162.929V122.557H169.702V124.533H162.929V131.094H170.669V133.08Z" fill="black"/>
<path d="M187.04 132.297C185.653 133.029 183.93 133.393 181.861 133.393C179.193 133.393 177.06 132.536 175.456 130.817C173.853 129.099 173.051 126.846 173.051 124.058C173.051 121.059 173.954 118.635 175.756 116.787C177.562 114.94 179.847 114.014 182.621 114.014C184.4 114.014 185.874 114.272 187.04 114.783V117.124C185.699 116.373 184.215 116 182.594 116C180.442 116 178.696 116.718 177.355 118.156C176.019 119.593 175.346 121.515 175.346 123.92C175.346 126.325 175.972 128.025 177.221 129.38C178.47 130.735 180.115 131.412 182.142 131.412C184.027 131.412 185.653 130.993 187.031 130.159V132.287L187.04 132.297Z" fill="black"/>
<path d="M201.945 116.318H196.531V133.08H194.334V116.318H188.934V114.332H201.941V116.318H201.945Z" fill="black"/>
<path d="M219.399 133.08H216.966L214.98 127.823H207.032L205.161 133.08H202.715L209.907 114.332H212.183L219.399 133.08ZM214.261 125.851L211.322 117.861C211.225 117.599 211.128 117.18 211.036 116.604H210.985C210.898 117.133 210.797 117.553 210.686 117.861L207.769 125.851H214.266H214.261Z" fill="black"/>
<path d="M15.4631 159.486V157.717C15.6106 157.897 15.7903 158.058 15.9976 158.201C16.2049 158.343 16.4261 158.463 16.6565 158.56C16.8869 158.657 17.1172 158.735 17.3522 158.79C17.5826 158.846 17.7992 158.869 17.9973 158.869C18.6746 158.869 19.1861 158.698 19.5224 158.357C19.8588 158.016 20.0246 157.523 20.0246 156.878C20.0246 156.533 19.9693 156.233 19.8588 155.975C19.7482 155.717 19.5915 155.487 19.3934 155.275C19.1953 155.063 18.9603 154.86 18.693 154.667C18.4212 154.473 18.1309 154.27 17.8222 154.054C17.4951 153.828 17.1864 153.598 16.9007 153.367C16.615 153.137 16.3662 152.879 16.1589 152.598C15.9469 152.317 15.7811 151.999 15.6613 151.649C15.5415 151.294 15.4816 150.879 15.4816 150.405C15.4816 149.819 15.5737 149.313 15.7626 148.879C15.9515 148.446 16.2003 148.092 16.5044 147.811C16.8132 147.529 17.1633 147.322 17.555 147.184C17.9466 147.046 18.3475 146.977 18.7575 146.977C19.6883 146.977 20.3656 147.129 20.7895 147.433V149.119C20.232 148.594 19.5178 148.331 18.647 148.331C18.4074 148.331 18.1632 148.363 17.9236 148.433C17.684 148.502 17.4674 148.612 17.2785 148.769C17.0896 148.926 16.9376 149.124 16.8178 149.368C16.698 149.612 16.6381 149.912 16.6381 150.262C16.6381 150.589 16.6841 150.87 16.7717 151.11C16.8638 151.349 16.9928 151.566 17.1679 151.764C17.343 151.962 17.555 152.151 17.8084 152.335C18.0618 152.519 18.3521 152.722 18.6792 152.943C19.0156 153.169 19.3381 153.409 19.6376 153.658C19.9417 153.906 20.2043 154.183 20.4347 154.487C20.6605 154.791 20.8448 155.127 20.9784 155.496C21.112 155.865 21.1811 156.288 21.1811 156.763C21.1811 157.394 21.089 157.929 20.9093 158.366C20.7296 158.804 20.4808 159.159 20.1721 159.435C19.8634 159.707 19.5086 159.905 19.1031 160.03C18.6976 160.154 18.2738 160.214 17.8268 160.214C17.6794 160.214 17.4951 160.196 17.2739 160.163C17.0527 160.131 16.8316 160.085 16.6012 160.021C16.3708 159.956 16.1589 159.882 15.9515 159.79C15.7488 159.698 15.5829 159.597 15.4631 159.482V159.486Z" fill="black"/>
<path d="M23.4662 151.616C23.2727 151.616 23.1069 151.552 22.9732 151.418C22.8396 151.285 22.7705 151.119 22.7705 150.916C22.7705 150.713 22.8396 150.547 22.9732 150.414C23.1069 150.28 23.2727 150.211 23.4662 150.211C23.6598 150.211 23.8302 150.28 23.9685 150.414C24.1067 150.547 24.1758 150.713 24.1758 150.916C24.1758 151.119 24.1067 151.275 23.9685 151.409C23.8302 151.547 23.6644 151.612 23.4662 151.612V151.616ZM23.9915 160.062H22.9133V153.326H23.9915V160.062Z" fill="black"/>
<path d="M31.5895 156.966H26.8345C26.8529 157.717 27.0556 158.293 27.438 158.703C27.8251 159.108 28.355 159.316 29.0277 159.316C29.7879 159.316 30.4837 159.067 31.1195 158.565V159.578C30.5297 160.007 29.7464 160.223 28.7696 160.223C27.7928 160.223 27.0694 159.919 26.5257 159.307C25.9821 158.694 25.7102 157.832 25.7102 156.726C25.7102 155.68 26.0051 154.823 26.5995 154.164C27.1938 153.506 27.9311 153.174 28.8111 153.174C29.6911 153.174 30.3731 153.46 30.8569 154.031C31.3407 154.602 31.5803 155.39 31.5803 156.404V156.97L31.5895 156.966ZM30.4837 156.049C30.4837 155.427 30.327 154.943 30.0321 154.593C29.7372 154.247 29.3271 154.072 28.7973 154.072C28.2674 154.072 27.8573 154.252 27.5026 154.616C27.1478 154.98 26.9266 155.455 26.8437 156.044H30.479L30.4837 156.049Z" fill="black"/>
<path d="M42.786 160.064H41.7079V156.198C41.7079 155.451 41.5927 154.912 41.3623 154.581C41.1319 154.249 40.7449 154.078 40.2012 154.078C39.7404 154.078 39.3488 154.29 39.0262 154.71C38.7037 155.129 38.5425 155.636 38.5425 156.221V160.064H37.4643V156.064C37.4643 154.742 36.9528 154.078 35.93 154.078C35.4554 154.078 35.0637 154.276 34.7596 154.673C34.4509 155.069 34.2989 155.585 34.2989 156.221V160.064H33.2207V153.327H34.2989V154.392H34.3265C34.8057 153.576 35.5015 153.166 36.4184 153.166C36.8791 153.166 37.28 153.295 37.6209 153.553C37.9619 153.811 38.1969 154.147 38.3259 154.562C38.8235 153.631 39.5699 153.166 40.5606 153.166C42.0442 153.166 42.786 154.078 42.786 155.908V160.059V160.064Z" fill="black"/>
<path d="M45.933 159.09H45.9053V160.063H44.8271V150.092H45.9053V154.51H45.933C46.4628 153.617 47.2415 153.17 48.2598 153.17C49.126 153.17 49.7987 153.469 50.2871 154.073C50.7755 154.676 51.0197 155.483 51.0197 156.496C51.0197 157.625 50.7479 158.524 50.1996 159.206C49.6513 159.887 48.9002 160.224 47.9511 160.224C47.0618 160.224 46.3891 159.846 45.933 159.09ZM45.9053 156.372V157.312C45.9053 157.869 46.085 158.339 46.449 158.731C46.813 159.123 47.2692 159.312 47.8267 159.312C48.481 159.312 48.9924 159.063 49.361 158.561C49.7296 158.058 49.9185 157.367 49.9185 156.473C49.9185 155.722 49.7434 155.137 49.3979 154.709C49.0523 154.285 48.5823 154.073 47.9879 154.073C47.3613 154.073 46.8545 154.289 46.4767 154.727C46.0942 155.165 45.9053 155.708 45.9053 156.367V156.372Z" fill="black"/>
<path d="M56.2585 154.418C56.0696 154.275 55.7977 154.201 55.443 154.201C54.9822 154.201 54.5952 154.418 54.2865 154.851C53.9778 155.284 53.8211 155.878 53.8211 156.625V160.057H52.7429V153.321H53.8211V154.708H53.8487C54.0008 154.233 54.2358 153.865 54.5537 153.597C54.8716 153.33 55.2218 153.201 55.6134 153.201C55.8945 153.201 56.1111 153.233 56.2585 153.293V154.413V154.418Z" fill="black"/>
<path d="M62.2529 160.063H61.1747V159.012H61.147C60.6771 159.819 59.9859 160.224 59.0736 160.224C58.4009 160.224 57.8757 160.044 57.4978 159.69C57.12 159.335 56.9265 158.865 56.9265 158.275C56.9265 157.017 57.6683 156.285 59.152 156.077L61.1701 155.796C61.1701 154.654 60.7093 154.078 59.7832 154.078C58.9723 154.078 58.2397 154.354 57.5854 154.907V153.801C58.2489 153.382 59.0091 153.17 59.8754 153.17C61.4604 153.17 62.2483 154.008 62.2483 155.681V160.063H62.2529ZM61.1701 156.658L59.5436 156.884C59.0414 156.953 58.6682 157.077 58.4102 157.257C58.1567 157.437 58.0277 157.75 58.0277 158.201C58.0277 158.529 58.1429 158.8 58.3779 159.008C58.6129 159.215 58.9262 159.321 59.3132 159.321C59.8477 159.321 60.29 159.132 60.6402 158.759C60.9904 158.386 61.1609 157.911 61.1609 157.335V156.662L61.1701 156.658Z" fill="black"/>
<path d="M74.8823 160.063H73.5645L71.9841 156.396C71.8413 156.055 71.6985 155.764 71.5648 155.525C71.4312 155.285 71.2884 155.087 71.1455 154.935C71.0027 154.783 70.8507 154.672 70.6848 154.603C70.5189 154.534 70.3346 154.497 70.1273 154.497H69.2196V160.063H68.1138V146.982H70.929C71.3391 146.982 71.7215 147.052 72.0717 147.199C72.4218 147.342 72.7213 147.558 72.9794 147.849C73.2374 148.139 73.4355 148.503 73.583 148.941C73.7258 149.374 73.7995 149.885 73.7995 150.47C73.7995 150.927 73.7488 151.346 73.6521 151.724C73.5553 152.101 73.4125 152.442 73.2328 152.742C73.0531 153.041 72.8319 153.295 72.5739 153.502C72.3159 153.714 72.0302 153.875 71.7077 153.991V154.027C71.8643 154.124 72.0026 154.235 72.1178 154.359C72.2329 154.484 72.3435 154.631 72.4495 154.801C72.5555 154.972 72.6568 155.165 72.7628 155.382C72.8642 155.599 72.9794 155.847 73.1084 156.133L74.8777 160.063H74.8823ZM69.2242 148.369V153.111H70.7263C71.0027 153.111 71.2561 153.055 71.4911 152.935C71.7261 152.82 71.9288 152.654 72.0993 152.438C72.2698 152.221 72.4034 151.959 72.5002 151.645C72.5969 151.332 72.643 150.982 72.643 150.59C72.643 149.89 72.4817 149.346 72.1546 148.954C71.8275 148.563 71.3575 148.365 70.7355 148.365H69.2242V148.369Z" fill="black"/>
<path d="M81.4435 156.966H76.6885C76.7069 157.717 76.9096 158.293 77.292 158.703C77.6791 159.108 78.209 159.316 78.8817 159.316C79.6419 159.316 80.3377 159.067 80.9735 158.565V159.578C80.3837 160.007 79.6005 160.223 78.6236 160.223C77.6468 160.223 76.9235 159.919 76.3798 159.307C75.8361 158.694 75.5642 157.832 75.5642 156.726C75.5642 155.68 75.8591 154.823 76.4535 154.164C77.0478 153.506 77.7851 153.174 78.6651 153.174C79.5452 153.174 80.2271 153.46 80.7109 154.031C81.1947 154.602 81.4343 155.39 81.4343 156.404V156.97L81.4435 156.966ZM80.3423 156.049C80.3423 155.427 80.1856 154.943 79.8907 154.593C79.5958 154.247 79.1858 154.072 78.6559 154.072C78.126 154.072 77.7159 154.252 77.3612 154.616C77.0064 154.98 76.7852 155.455 76.7023 156.044H80.3377L80.3423 156.049Z" fill="black"/>
<path d="M84.1573 160.063H83.0791V150.092H84.1573V160.063Z" fill="black"/>
<path d="M91.1608 160.063H90.0827V159.012H90.055C89.585 159.819 88.8939 160.224 87.9816 160.224C87.3089 160.224 86.7836 160.044 86.4058 159.69C86.028 159.335 85.8345 158.865 85.8345 158.275C85.8345 157.017 86.5763 156.285 88.0599 156.077L90.078 155.796C90.078 154.654 89.6173 154.078 88.6912 154.078C87.8802 154.078 87.1476 154.354 86.4934 154.907V153.801C87.1568 153.382 87.9171 153.17 88.7833 153.17C90.3683 153.17 91.1562 154.008 91.1562 155.681V160.063H91.1608ZM90.0827 156.658L88.4562 156.884C87.954 156.953 87.5807 157.077 87.3227 157.257C87.0693 157.437 86.9403 157.75 86.9403 158.201C86.9403 158.529 87.0555 158.8 87.2905 159.008C87.5255 159.215 87.8388 159.321 88.2258 159.321C88.7603 159.321 89.2026 159.132 89.5528 158.759C89.903 158.386 90.0734 157.911 90.0734 157.335V156.662L90.0827 156.658Z" fill="black"/>
<path d="M97.7864 159.754C97.2704 160.067 96.653 160.22 95.9434 160.22C94.985 160.22 94.2063 159.906 93.6166 159.284C93.0268 158.658 92.7319 157.851 92.7319 156.851C92.7319 155.741 93.0499 154.852 93.6857 154.179C94.3216 153.506 95.1693 153.17 96.2337 153.17C96.8281 153.17 97.3487 153.28 97.8003 153.497V154.603C97.298 154.253 96.7636 154.078 96.1968 154.078C95.5103 154.078 94.9436 154.326 94.5012 154.819C94.0589 155.312 93.8424 155.962 93.8424 156.764C93.8424 157.566 94.0497 158.174 94.4644 158.63C94.8791 159.086 95.4366 159.316 96.1323 159.316C96.7221 159.316 97.2704 159.123 97.7911 158.731V159.759L97.7864 159.754Z" fill="black"/>
<path d="M99.9707 151.616C99.7771 151.616 99.6113 151.552 99.4776 151.418C99.344 151.285 99.2749 151.119 99.2749 150.916C99.2749 150.713 99.344 150.547 99.4776 150.414C99.6113 150.28 99.7771 150.211 99.9707 150.211C100.164 150.211 100.335 150.28 100.473 150.414C100.611 150.547 100.68 150.713 100.68 150.916C100.68 151.119 100.611 151.275 100.473 151.409C100.335 151.547 100.169 151.612 99.9707 151.612V151.616ZM100.496 160.062H99.4178V153.326H100.496V160.062Z" fill="black"/>
<path d="M105.495 160.22C104.5 160.22 103.703 159.906 103.108 159.275C102.514 158.648 102.219 157.81 102.219 156.773C102.219 155.64 102.528 154.76 103.145 154.124C103.763 153.488 104.601 153.17 105.652 153.17C106.702 153.17 107.439 153.479 108.001 154.096C108.564 154.713 108.845 155.57 108.845 156.667C108.845 157.764 108.541 158.602 107.932 159.247C107.324 159.892 106.509 160.22 105.49 160.22H105.495ZM105.573 154.078C104.882 154.078 104.334 154.313 103.928 154.783C103.523 155.253 103.325 155.902 103.325 156.732C103.325 157.561 103.528 158.16 103.938 158.621C104.348 159.081 104.891 159.312 105.578 159.312C106.264 159.312 106.813 159.086 107.186 158.634C107.559 158.183 107.748 157.543 107.748 156.709C107.748 155.875 107.559 155.216 107.186 154.76C106.813 154.303 106.274 154.078 105.578 154.078H105.573Z" fill="black"/>
<path d="M116.166 160.063H115.088V156.22C115.088 154.792 114.567 154.078 113.521 154.078C112.982 154.078 112.535 154.28 112.185 154.686C111.83 155.091 111.655 155.603 111.655 156.22V160.063H110.577V153.327H111.655V154.446H111.683C112.19 153.594 112.927 153.17 113.895 153.17C114.632 153.17 115.194 153.41 115.586 153.884C115.977 154.359 116.171 155.05 116.171 155.948V160.067L116.166 160.063Z" fill="black"/>
<path d="M123.612 156.966H118.857C118.875 157.717 119.078 158.293 119.461 158.703C119.848 159.108 120.377 159.316 121.05 159.316C121.81 159.316 122.506 159.067 123.142 158.565V159.578C122.548 160.007 121.769 160.223 120.792 160.223C119.815 160.223 119.092 159.919 118.548 159.307C118.005 158.694 117.733 157.832 117.733 156.726C117.733 155.68 118.028 154.823 118.622 154.164C119.216 153.506 119.954 153.174 120.834 153.174C121.714 153.174 122.396 153.46 122.879 154.031C123.363 154.602 123.603 155.39 123.603 156.404V156.97L123.612 156.966ZM122.506 156.049C122.506 155.427 122.349 154.943 122.055 154.593C121.76 154.247 121.35 154.072 120.82 154.072C120.29 154.072 119.88 154.252 119.525 154.616C119.17 154.98 118.949 155.455 118.866 156.044H122.501L122.506 156.049Z" fill="black"/>
<path d="M124.833 159.819V158.662C125.418 159.095 126.068 159.312 126.773 159.312C127.722 159.312 128.192 158.994 128.192 158.363C128.192 158.183 128.15 158.031 128.072 157.907C127.994 157.782 127.883 157.672 127.745 157.575C127.607 157.478 127.445 157.39 127.257 157.317C127.068 157.238 126.87 157.16 126.653 157.077C126.353 156.957 126.091 156.838 125.865 156.718C125.639 156.598 125.45 156.46 125.298 156.312C125.146 156.165 125.031 155.99 124.957 155.796C124.884 155.603 124.842 155.377 124.842 155.119C124.842 154.806 124.916 154.525 125.059 154.28C125.202 154.036 125.395 153.833 125.639 153.668C125.879 153.502 126.155 153.377 126.464 153.294C126.773 153.211 127.091 153.17 127.422 153.17C128.008 153.17 128.528 153.271 128.989 153.474V154.566C128.491 154.243 127.925 154.078 127.28 154.078C127.077 154.078 126.897 154.101 126.731 154.147C126.565 154.193 126.432 154.257 126.312 154.34C126.197 154.423 126.105 154.525 126.04 154.64C125.976 154.755 125.943 154.884 125.943 155.027C125.943 155.202 125.976 155.349 126.04 155.469C126.105 155.589 126.197 155.695 126.321 155.787C126.446 155.879 126.593 155.962 126.768 156.036C126.943 156.11 127.141 156.192 127.367 156.28C127.667 156.395 127.934 156.51 128.169 156.63C128.404 156.75 128.607 156.888 128.772 157.04C128.938 157.192 129.067 157.367 129.159 157.561C129.247 157.759 129.293 157.994 129.293 158.266C129.293 158.598 129.219 158.888 129.072 159.132C128.924 159.376 128.731 159.584 128.482 159.745C128.238 159.906 127.952 160.026 127.634 160.109C127.316 160.187 126.98 160.229 126.63 160.229C125.939 160.229 125.335 160.095 124.828 159.828L124.833 159.819Z" fill="black"/>
<path d="M131.947 158.566L130.897 161.801H130.127L130.897 158.566H131.947Z" fill="black"/>
<path d="M144.134 159.473C143.438 159.975 142.568 160.224 141.531 160.224C140.19 160.224 139.116 159.639 138.306 158.464C137.499 157.289 137.094 155.75 137.094 153.847C137.094 151.797 137.545 150.143 138.453 148.88C139.361 147.618 140.513 146.986 141.909 146.986C142.803 146.986 143.544 147.161 144.134 147.512V149.11C143.457 148.599 142.715 148.341 141.899 148.341C140.817 148.341 139.937 148.834 139.264 149.815C138.591 150.797 138.255 152.11 138.255 153.755C138.255 155.4 138.568 156.556 139.199 157.482C139.826 158.409 140.655 158.869 141.674 158.869C142.623 158.869 143.443 158.584 144.134 158.012V159.468V159.473Z" fill="black"/>
<path d="M148.723 160.22C147.728 160.22 146.931 159.906 146.341 159.275C145.747 158.648 145.452 157.81 145.452 156.773C145.452 155.64 145.761 154.76 146.378 154.124C146.995 153.488 147.834 153.17 148.885 153.17C149.935 153.17 150.672 153.479 151.234 154.096C151.797 154.713 152.078 155.57 152.078 156.667C152.078 157.764 151.774 158.602 151.165 159.247C150.557 159.892 149.742 160.22 148.723 160.22ZM148.806 154.078C148.115 154.078 147.567 154.313 147.161 154.783C146.756 155.253 146.558 155.902 146.558 156.732C146.558 157.561 146.76 158.16 147.171 158.621C147.581 159.081 148.124 159.312 148.806 159.312C149.488 159.312 150.041 159.086 150.414 158.634C150.787 158.183 150.976 157.543 150.976 156.709C150.976 155.875 150.787 155.216 150.414 154.76C150.041 154.303 149.502 154.078 148.806 154.078Z" fill="black"/>
<path d="M153.395 159.819V158.662C153.98 159.095 154.63 159.312 155.335 159.312C156.284 159.312 156.754 158.994 156.754 158.363C156.754 158.183 156.713 158.031 156.634 157.907C156.556 157.782 156.445 157.672 156.307 157.575C156.169 157.478 156.008 157.39 155.819 157.317C155.63 157.238 155.432 157.16 155.215 157.077C154.916 156.957 154.653 156.838 154.427 156.718C154.202 156.598 154.013 156.46 153.861 156.312C153.709 156.165 153.593 155.99 153.52 155.796C153.446 155.603 153.404 155.377 153.404 155.119C153.404 154.806 153.478 154.525 153.621 154.28C153.764 154.036 153.957 153.833 154.202 153.668C154.441 153.502 154.718 153.377 155.026 153.294C155.335 153.211 155.653 153.17 155.985 153.17C156.57 153.17 157.091 153.271 157.551 153.474V154.566C157.054 154.243 156.487 154.078 155.842 154.078C155.639 154.078 155.459 154.101 155.294 154.147C155.128 154.193 154.994 154.257 154.874 154.34C154.759 154.423 154.667 154.525 154.602 154.64C154.538 154.755 154.506 154.884 154.506 155.027C154.506 155.202 154.538 155.349 154.602 155.469C154.667 155.589 154.759 155.695 154.883 155.787C155.008 155.879 155.155 155.962 155.33 156.036C155.505 156.11 155.704 156.192 155.929 156.28C156.229 156.395 156.496 156.51 156.731 156.63C156.966 156.75 157.169 156.888 157.335 157.04C157.501 157.192 157.63 157.367 157.722 157.561C157.809 157.759 157.855 157.994 157.855 158.266C157.855 158.598 157.782 158.888 157.634 159.132C157.487 159.376 157.293 159.584 157.044 159.745C156.8 159.906 156.515 160.026 156.197 160.109C155.879 160.187 155.542 160.229 155.192 160.229C154.501 160.229 153.897 160.095 153.391 159.828L153.395 159.819Z" fill="black"/>
<path d="M164.933 156.966H160.178C160.196 157.717 160.399 158.293 160.781 158.703C161.168 159.108 161.698 159.316 162.371 159.316C163.131 159.316 163.827 159.067 164.463 158.565V159.578C163.873 160.007 163.09 160.223 162.113 160.223C161.136 160.223 160.413 159.919 159.869 159.307C159.325 158.694 159.053 157.832 159.053 156.726C159.053 155.68 159.348 154.823 159.943 154.164C160.537 153.506 161.274 153.174 162.154 153.174C163.034 153.174 163.716 153.46 164.2 154.031C164.684 154.602 164.924 155.39 164.924 156.404V156.97L164.933 156.966ZM163.827 156.049C163.827 155.427 163.67 154.943 163.375 154.593C163.08 154.247 162.67 154.072 162.141 154.072C161.611 154.072 161.201 154.252 160.846 154.616C160.491 154.98 160.27 155.455 160.187 156.044H163.822L163.827 156.049Z" fill="black"/>
<path d="M171.158 159.754C170.641 160.067 170.024 160.22 169.315 160.22C168.356 160.22 167.577 159.906 166.988 159.284C166.398 158.658 166.103 157.851 166.103 156.851C166.103 155.741 166.421 154.852 167.057 154.179C167.693 153.506 168.54 153.17 169.605 153.17C170.195 153.17 170.72 153.28 171.171 153.497V154.603C170.669 154.253 170.135 154.078 169.568 154.078C168.881 154.078 168.315 154.326 167.872 154.819C167.43 155.312 167.209 155.962 167.209 156.764C167.209 157.566 167.416 158.174 167.831 158.63C168.246 159.086 168.803 159.316 169.499 159.316C170.084 159.316 170.637 159.123 171.158 158.731V159.759V159.754Z" fill="black"/>
<path d="M178.378 160.063H177.299V156.183C177.299 154.778 176.779 154.077 175.733 154.077C175.208 154.077 174.765 154.28 174.406 154.686C174.046 155.091 173.867 155.612 173.867 156.248V160.063H172.789V150.092H173.867V154.446H173.894C174.41 153.594 175.148 153.17 176.106 153.17C177.622 153.17 178.382 154.082 178.382 155.911V160.063H178.378Z" fill="black"/>
<path d="M185.234 160.063H184.155V159.012H184.128C183.658 159.819 182.967 160.224 182.054 160.224C181.382 160.224 180.856 160.044 180.479 159.69C180.101 159.335 179.912 158.865 179.912 158.275C179.912 157.017 180.654 156.285 182.137 156.077L184.155 155.796C184.155 154.654 183.695 154.078 182.769 154.078C181.958 154.078 181.225 154.354 180.571 154.907V153.801C181.234 153.382 181.995 153.17 182.861 153.17C184.446 153.17 185.234 154.008 185.234 155.681V160.063ZM184.155 156.658L182.529 156.884C182.027 156.953 181.654 157.077 181.396 157.257C181.137 157.437 181.013 157.75 181.013 158.201C181.013 158.529 181.128 158.8 181.363 159.008C181.598 159.215 181.912 159.321 182.303 159.321C182.838 159.321 183.28 159.132 183.63 158.759C183.98 158.386 184.151 157.911 184.151 157.335V156.662L184.155 156.658Z" fill="black"/>
<path d="M195.997 160.063H191.104V146.982H192.21V158.676H195.997V160.063Z" fill="black"/>
<path d="M200.111 160.22C199.116 160.22 198.319 159.906 197.729 159.275C197.135 158.648 196.84 157.81 196.84 156.773C196.84 155.64 197.149 154.76 197.766 154.124C198.384 153.488 199.222 153.17 200.273 153.17C201.323 153.17 202.06 153.479 202.623 154.096C203.185 154.713 203.466 155.57 203.466 156.667C203.466 157.764 203.162 158.602 202.553 159.247C201.945 159.892 201.13 160.22 200.111 160.22ZM200.19 154.078C199.499 154.078 198.95 154.313 198.545 154.783C198.139 155.253 197.941 155.902 197.941 156.732C197.941 157.561 198.144 158.16 198.554 158.621C198.964 159.081 199.508 159.312 200.19 159.312C200.872 159.312 201.425 159.086 201.798 158.634C202.171 158.183 202.36 157.543 202.36 156.709C202.36 155.875 202.171 155.216 201.798 154.76C201.425 154.303 200.886 154.078 200.19 154.078Z" fill="black"/>
<path d="M210.94 159.524C210.94 161.999 209.755 163.234 207.387 163.234C206.553 163.234 205.825 163.077 205.203 162.759V161.681C205.963 162.1 206.687 162.312 207.373 162.312C209.032 162.312 209.861 161.432 209.861 159.667V158.93H209.834C209.322 159.792 208.548 160.22 207.516 160.22C206.678 160.22 206.005 159.921 205.493 159.322C204.982 158.723 204.729 157.921 204.729 156.912C204.729 155.769 205.005 154.857 205.553 154.18C206.102 153.502 206.857 153.166 207.811 153.166C208.765 153.166 209.391 153.53 209.829 154.258H209.857V153.323H210.935V159.52L210.94 159.524ZM209.861 157.018V156.023C209.861 155.488 209.682 155.027 209.318 154.65C208.958 154.267 208.507 154.078 207.968 154.078C207.3 154.078 206.779 154.323 206.401 154.806C206.023 155.29 205.834 155.967 205.834 156.843C205.834 157.594 206.014 158.193 206.378 158.64C206.742 159.087 207.217 159.313 207.816 159.313C208.415 159.313 208.912 159.096 209.295 158.667C209.672 158.239 209.861 157.686 209.861 157.018Z" fill="black"/>
<path d="M216.639 154.418C216.45 154.275 216.178 154.201 215.823 154.201C215.363 154.201 214.98 154.418 214.667 154.851C214.358 155.284 214.201 155.878 214.201 156.625V160.057H213.123V153.321H214.201V154.708H214.229C214.381 154.233 214.616 153.865 214.934 153.597C215.247 153.33 215.602 153.201 215.994 153.201C216.275 153.201 216.491 153.233 216.639 153.293V154.413V154.418Z" fill="black"/>
<path d="M220.624 160.22C219.629 160.22 218.832 159.906 218.242 159.275C217.648 158.648 217.353 157.81 217.353 156.773C217.353 155.64 217.662 154.76 218.279 154.124C218.897 153.488 219.735 153.17 220.786 153.17C221.836 153.17 222.573 153.479 223.136 154.096C223.698 154.713 223.979 155.57 223.979 156.667C223.979 157.764 223.675 158.602 223.066 159.247C222.458 159.892 221.643 160.22 220.624 160.22ZM220.703 154.078C220.012 154.078 219.463 154.313 219.058 154.783C218.652 155.253 218.454 155.902 218.454 156.732C218.454 157.561 218.657 158.16 219.067 158.621C219.477 159.081 220.021 159.312 220.703 159.312C221.385 159.312 221.938 159.086 222.311 158.634C222.684 158.183 222.873 157.543 222.873 156.709C222.873 155.875 222.684 155.216 222.311 154.76C221.938 154.303 221.398 154.078 220.703 154.078Z" fill="black"/>
<path d="M225.292 159.819V158.662C225.877 159.095 226.527 159.312 227.232 159.312C228.181 159.312 228.651 158.994 228.651 158.363C228.651 158.183 228.609 158.031 228.531 157.907C228.453 157.782 228.342 157.672 228.204 157.575C228.066 157.478 227.904 157.39 227.716 157.317C227.527 157.238 227.329 157.16 227.112 157.077C226.812 156.957 226.55 156.838 226.324 156.718C226.098 156.598 225.909 156.46 225.757 156.312C225.605 156.165 225.49 155.99 225.416 155.796C225.343 155.603 225.301 155.377 225.301 155.119C225.301 154.806 225.375 154.525 225.518 154.28C225.661 154.036 225.854 153.833 226.098 153.668C226.338 153.502 226.614 153.377 226.923 153.294C227.232 153.211 227.55 153.17 227.881 153.17C228.467 153.17 228.987 153.271 229.448 153.474V154.566C228.95 154.243 228.384 154.078 227.739 154.078C227.536 154.078 227.356 154.101 227.19 154.147C227.024 154.193 226.891 154.257 226.771 154.34C226.656 154.423 226.564 154.525 226.499 154.64C226.435 154.755 226.402 154.884 226.402 155.027C226.402 155.202 226.435 155.349 226.499 155.469C226.564 155.589 226.656 155.695 226.78 155.787C226.905 155.879 227.052 155.962 227.227 156.036C227.402 156.11 227.6 156.192 227.826 156.28C228.126 156.395 228.393 156.51 228.628 156.63C228.863 156.75 229.066 156.888 229.231 157.04C229.397 157.192 229.526 157.367 229.618 157.561C229.706 157.759 229.752 157.994 229.752 158.266C229.752 158.598 229.678 158.888 229.531 159.132C229.383 159.376 229.19 159.584 228.941 159.745C228.697 159.906 228.411 160.026 228.093 160.109C227.775 160.187 227.439 160.229 227.089 160.229C226.398 160.229 225.794 160.095 225.287 159.828L225.292 159.819Z" fill="black"/>
<path d="M158.454 65.6678C158.454 65.6678 158.441 65.6632 158.436 65.6586C157.851 65.4467 156.985 65.5665 156.372 65.5711C155.57 65.5803 154.764 65.6172 153.962 65.5803C153.151 65.5434 152.971 66.6861 153.409 67.1929C153.755 67.5938 154.423 67.497 154.893 67.497C155.745 67.497 156.602 67.4464 157.455 67.497C157.768 67.4878 158.104 67.5662 158.404 67.451C159.04 67.2114 159.104 65.9259 158.459 65.6632L158.454 65.6678ZM158.095 66.4696C157.8 66.6815 157.432 66.5801 157.095 66.5986C156.054 66.5294 154.939 66.746 153.934 66.4788C155.303 66.382 156.722 66.3774 158.095 66.4696Z" fill="black"/>
<path d="M106.043 93.1382C113.779 84.9874 110.116 69.8792 99.0997 66.8335C83.9684 62.1016 71.8321 80.1679 83.0745 91.8527C91.4741 100.699 104.901 97.3127 108.891 85.9826C107.186 94.0827 98.4224 99.4183 90.4144 97.5615C82.365 95.9949 76.458 87.5308 77.3197 79.4583C77.3151 79.1127 76.9464 78.9238 76.6562 79.1035C76.3613 79.5136 76.4442 80.0527 76.4166 80.5319C76.3659 82.4486 76.7069 84.3561 77.292 86.1807C80.955 98.7548 97.206 103.215 106.043 93.1428V93.1382ZM109.296 84.0152C108.402 84.006 108.398 85.2454 108.052 85.8582C107.614 86.9041 107.163 87.9454 106.587 88.9269C101.385 98.4277 87.7558 98.2019 82.024 89.3416C73.6705 77.2144 87.1246 62.3826 100.238 68.1052C106.43 70.5795 110.149 77.4816 109.296 84.0198V84.0152Z" fill="black"/>
<path d="M158.666 69.8329C158.731 69.5104 158.657 69.2017 158.643 68.8792C158.634 68.635 158.754 68.3493 158.643 68.1235C158.602 68.0406 158.547 67.9761 158.477 67.9208C158.04 67.566 157.104 67.7042 156.634 67.7042C155.782 67.7042 154.925 67.7457 154.073 67.7181C153.792 67.7273 153.363 67.7365 153.303 68.0959C153.354 68.8285 152.773 70.4734 153.851 70.5886C155.225 70.6116 156.598 70.5794 157.971 70.5886C158.399 70.6393 158.689 70.2154 158.671 69.8283L158.666 69.8329ZM157.874 68.5797C156.648 68.6811 155.358 68.7824 154.137 68.5981C155.381 68.5659 156.63 68.5014 157.874 68.5797ZM157.878 69.6164C156.63 69.8376 155.294 69.6993 154.022 69.6855C154.884 69.3169 155.948 69.598 156.879 69.5058C157.215 69.5104 157.565 69.4736 157.878 69.6164Z" fill="black"/>
<path d="M108.338 80.2924C108.499 79.1083 107.697 77.5647 107.251 76.5188C106.817 75.5097 106.352 74.5468 105.67 73.699C104.578 72.3443 103.343 71.0726 101.846 70.1696C92.0087 63.6959 78.1445 73.1138 80.9459 84.665C82.0194 89.9591 86.6224 94.258 91.9211 95.161C92.3911 95.2808 92.9578 94.8892 92.8749 94.3824C92.838 93.4885 89.6404 92.9172 88.7834 92.1984C87.567 91.5671 86.5395 90.6318 85.6456 89.6089C81.6969 83.4855 85.1203 74.109 92.1193 71.8836C95.1649 70.8146 98.4224 71.6762 101.104 73.2843C101.385 73.3995 101.744 73.4317 101.989 73.2152C103.173 71.7039 98.8371 70.0129 97.7543 69.6904C80.7754 66.0273 75.3845 89.4062 91.8198 94.3501C82.623 92.7789 78.1952 81.2876 84.0837 73.9985C86.369 71.1694 89.4561 69.3033 93.1237 68.9624C96.5517 68.6445 100.086 69.6627 102.795 71.796C104.168 72.8788 105.311 74.2427 106.112 75.7908C106.536 76.6063 106.863 77.468 107.094 78.3572C107.2 78.7673 107.366 81.0849 108.121 80.7255C108.292 80.6426 108.31 80.4583 108.333 80.2878L108.338 80.2924ZM83.4386 86.0473C79.9046 77.0901 88.1567 67.9717 97.4088 70.3953C98.8233 70.8423 100.339 71.4366 101.348 72.5655C92.2206 66.3914 81.2684 76.0857 83.4386 86.0519V86.0473Z" fill="black"/>
<path d="M92.4003 88.4694C102.03 91.7407 105.767 77.1808 95.7593 75.5175C87.9033 74.6006 85.042 85.4975 92.4003 88.4694ZM89.9399 85.6357C86.945 81.2954 90.7877 75.3378 95.9896 76.3376C99.6895 76.8399 102.062 81.2447 100.431 84.6036C98.7311 88.7873 92.4694 89.3033 89.9445 85.6357H89.9399Z" fill="black"/>
<path d="M90.0503 85.1023C92.1652 88.7423 98.0905 88.558 99.8276 84.6646C101.348 81.6051 99.2378 77.5044 95.8697 76.9377C91.4603 75.9056 87.6544 81.2872 90.0503 85.1023ZM90.3959 83.7707C92.2067 87.8115 97.5008 87.6963 99.3761 83.7615C98.0076 87.9636 91.6307 88.1064 90.3959 83.7707ZM90.3268 81.3287C90.806 78.5365 94.0589 76.8501 96.6346 77.9836C98.0813 78.6056 99.1365 79.9833 99.4267 81.5222C99.1365 81.7848 98.9936 82.1534 98.9061 82.5267C98.6895 83.3883 98.2749 84.213 97.6436 84.8489C95.1002 87.3508 91.1746 85.4525 90.5664 82.1949C90.5111 81.8954 90.2162 81.6512 90.3222 81.3287H90.3268Z" fill="black"/>
<path d="M94.7227 84.877C98.1046 84.9599 99.0077 80.1358 95.658 79.1912C91.4052 78.196 90.3363 84.4439 94.7227 84.877ZM95.4414 79.9423C98.7727 81.0849 96.0635 85.7017 93.3865 83.4947C91.7416 81.9972 93.345 79.2788 95.4414 79.9423Z" fill="black"/>
<path d="M64.9163 102.385V103.159H93.7643C94.4738 103.164 95.188 103.173 95.8976 103.159H180.009V102.385H154.828C155.409 102.311 155.985 102.214 156.552 102.099C158.92 101.611 160.92 100.233 162.459 98.3763C163.578 97.0263 164.421 95.4551 164.993 93.801C165.573 92.1192 165.873 90.3453 165.905 88.5667C165.933 86.8021 165.693 85.0328 165.154 83.351C164.629 81.7061 163.813 80.1487 162.703 78.8217C162.145 78.1582 161.519 77.55 160.828 77.0248C160.473 76.7575 160.109 76.5087 159.726 76.2784C159.533 76.1632 159.335 76.0526 159.132 75.9512C159.044 75.9051 158.62 75.6287 158.538 75.6655C159.551 75.2232 159.344 74.2741 159.404 73.3249C159.478 72.1868 159.565 71.0488 159.657 69.9107C159.754 68.7496 159.86 67.5885 159.961 66.4274C160.012 65.8468 160.063 65.2663 160.113 64.6857C160.159 64.1466 160.132 63.5292 160.265 63.0131C160.662 63.1145 161.076 63.2205 161.486 63.2666C161.883 63.3126 162.247 63.2712 162.357 62.8519C162.472 62.4234 162.523 61.8014 162.403 61.3729C162.214 60.7094 160.91 61.1701 160.381 61.1425C160.629 58.2766 159.358 56.0695 156.335 55.7747C152.681 55.3461 148.981 55.5166 145.309 55.5074C145.305 55.0973 145.309 54.6873 145.318 54.2772C146.484 54.4523 147.447 53.4709 147.355 52.319C147.369 49.6097 147.355 46.9051 147.355 44.2004C147.443 43.113 146.512 42.2975 145.452 42.4357C145.438 40.9336 145.42 39.4362 145.429 37.9341C145.429 37.3812 145.328 36.6855 145.512 36.151C145.659 35.7179 146.042 35.4599 146.447 35.2894C146.991 35.059 147.608 34.9208 148.018 34.4646C148.511 33.9117 148.06 32.8289 147.272 32.9395C146.415 33.0823 145.669 33.5707 144.899 33.944C144.07 34.3586 143.356 35.1281 143.305 36.0957C143.208 38.206 143.31 40.3208 143.24 42.4311C142.153 42.3344 141.232 43.219 141.296 44.311C141.31 46.9788 141.296 49.6512 141.305 52.319C141.259 53.4018 142.13 54.4292 143.259 54.3048C143.259 54.7103 143.263 55.1204 143.259 55.5258C135.546 55.8115 127.87 56.816 120.143 56.6869C119.889 56.7238 119.728 56.498 119.548 56.3644C117.82 54.7702 116.01 53.2405 114.356 51.5679C114.802 50.7109 115.222 49.8493 115.71 49.0153C115.95 48.6053 116.346 47.9786 116.102 47.4948C115.641 46.5733 114.42 47.8496 114.028 48.2044C113.54 48.6513 113.102 49.149 112.697 49.6742C111.9 50.7063 111.199 51.8167 110.467 52.8995C109.734 48.5269 109.103 44.1451 108.495 39.7541C110.25 39.7357 112.006 39.7771 113.761 39.7449C114.213 39.7587 114.706 39.4039 114.678 38.9201C114.586 37.349 114.692 34.6858 112.572 34.4692C112.499 34.46 112.43 34.4554 112.356 34.4462C107.619 33.967 102.873 33.7919 98.1184 33.8011C93.3127 33.8103 88.5116 33.9716 83.7059 34.0545C81.9919 34.0177 81.1994 35.6902 81.0934 37.1877C80.8078 38.6483 82.7568 38.5193 83.7152 38.5147C87.4703 38.5423 91.2301 38.593 94.9853 38.5239C94.9853 38.593 94.9807 38.7358 94.9761 38.805C91.9673 38.4962 88.9033 38.7497 85.8761 38.7128C84.2496 38.6852 82.5863 39.6389 82.531 41.4128C81.8906 46.4121 81.3469 51.4205 80.7755 56.4243C80.7341 56.733 80.7801 57.0648 80.6649 57.3597C80.5129 57.7421 79.5499 58.1752 79.2136 58.4056C78.8542 58.6498 78.1723 58.9815 77.9188 59.3225C77.4489 59.9583 78.4487 61.0826 78.8127 61.5433C79.3195 62.1884 80.0153 62.58 80.7986 62.1377C83.7566 60.4652 86.899 59.0645 90.2533 58.4194C99.3671 56.8344 110.697 60.7324 114.858 69.4223C107.67 58.53 90.6035 55.0236 80.3148 63.4969C76.9006 65.2985 74.5553 68.9984 73.4357 72.6292C73.6338 73.2005 74.3065 73.0208 74.3434 72.4495C75.3478 69.3762 77.2784 66.4827 79.9277 64.6028C78.1538 66.6624 76.062 68.6021 75.0898 71.2561C74.6751 72.3896 74.1637 73.4816 73.7213 74.6012C73.3251 75.6103 73.1684 76.5871 73.0671 77.6606C72.9979 78.384 72.9657 79.112 72.9795 79.84C72.9887 80.1902 73.0072 80.5358 73.0394 80.8813C73.0625 81.1393 73.2191 81.5863 73.1638 81.8305C73.0624 82.2682 72.7169 82.646 72.7906 83.1252C72.8966 84.125 73.514 84.9728 73.7812 85.9312C74.0899 86.802 73.901 87.7604 74.2051 88.6313C74.7534 90.1564 75.5874 91.5617 76.3384 92.9946C72.7445 87.8572 71.8092 81.2545 72.7307 75.2048C72.657 74.873 72.1133 74.9145 72.0257 75.2186C71.5512 76.9557 71.4913 78.9231 71.5512 80.7108C71.6111 82.4709 71.8783 84.2218 72.3391 85.9266C73.2283 89.2118 74.8225 92.2712 76.8729 94.9805C77.0065 95.1556 77.1401 95.3307 77.2738 95.5012C78.421 96.9525 79.702 98.3026 81.075 99.542C81.7247 100.127 82.4573 100.933 83.236 101.339C83.9594 101.712 84.7427 102.113 85.5352 102.389H64.9347L64.9163 102.385ZM145.415 53.5215C146.116 53.1345 146.249 52.4065 146.203 51.6693C146.203 49.4346 146.185 47.2046 146.203 44.9699C146.245 44.3248 146.125 43.6613 145.53 43.3065C145.798 43.4632 146.134 43.2881 146.378 43.5738C146.673 43.924 146.553 44.523 146.553 44.9376C146.549 46.0895 146.553 47.2368 146.526 48.3887C146.498 49.7387 146.447 51.0841 146.507 52.4342C146.553 53.0331 146.019 53.5584 145.42 53.5215H145.415ZM160.307 62.0133C160.717 61.9212 161.141 61.9027 161.565 61.9027C161.565 62.0686 161.556 62.2345 161.551 62.4049L160.307 62.0133ZM77.2968 94.0452C78.2183 94.7732 78.8772 95.7592 79.4209 96.7867C78.6422 95.9343 77.8313 95.0773 77.2968 94.0452ZM73.8043 80.8721C73.7398 79.5958 73.7029 78.3011 73.9102 77.034C74.0577 78.2965 74.1913 79.6419 73.8043 80.8721ZM75.8823 71.7445C75.7026 72.9194 75.2833 74.0667 74.7903 75.1449C74.9884 73.97 75.3985 72.8273 75.8823 71.7445ZM79.4532 66.4043C79.338 66.8927 78.8772 67.1554 78.61 67.5516C78.1584 68.2151 77.6378 68.8556 76.9559 69.2979C77.6931 68.2658 78.4257 67.1784 79.4485 66.4043H79.4532ZM79.361 67.8511C79.2642 68.1828 79.255 68.6482 78.8404 68.7496C78.9648 68.4224 79.1491 68.1276 79.361 67.8511ZM81.0842 65.3215C81.9827 63.7642 84.4984 62.5754 86.1341 61.8843C85.678 62.3681 85.0329 62.5892 84.4708 62.921C83.236 63.5707 82.2684 64.6074 81.0888 65.3215H81.0842ZM84.0285 64.0775C83.6276 64.6166 83.1623 65.1465 82.5264 65.4091C82.8996 64.8424 83.5124 64.4968 84.0285 64.0775ZM98.3903 59.9307C98.3903 59.9952 98.3811 60.1242 98.3765 60.1933C94.7411 59.4238 90.0045 59.2027 86.8068 61.3268C86.1756 60.6495 84.4201 61.8106 83.8442 62.1423C82.9503 62.6492 81.9182 63.2297 81.1303 63.9208C85.4338 59.9952 92.8105 58.8341 98.3903 59.9353V59.9307ZM86.8621 62.6077C88.4149 59.8662 95.1972 60.2025 97.9111 60.9029C96.667 60.9213 95.3493 61.0595 94.308 61.8152C91.8521 60.502 89.1337 61.3176 86.8621 62.6123V62.6077ZM89.3548 62.2805C89.0369 62.6353 88.5577 62.8242 88.0831 62.8012C88.4886 62.5893 88.9263 62.4372 89.3548 62.2805ZM123.432 71.8873C123.488 72.4771 123.534 73.0899 123.359 73.6659C123.161 74.3109 121.769 74.0805 121.17 74.0805C120.691 74.0805 120.212 74.0575 119.733 74.0437C119.428 74.0345 119.124 74.0299 118.82 74.0252C118.742 74.0252 118.558 74.0575 118.493 74.0252C117.954 73.7534 119.005 73.6935 119.138 73.6843C119.502 73.6659 119.866 73.6566 120.23 73.6566C120.751 73.6566 121.271 73.6935 121.788 73.7258C122.271 73.7534 122.87 73.8548 123.068 73.3019C123.248 72.7996 123.239 72.2421 123.211 71.7122C123.197 71.4358 122.986 70.5742 123.253 70.4083C123.253 70.4175 123.262 70.4221 123.267 70.4313C123.506 70.846 123.382 71.4358 123.428 71.8919L123.432 71.8873ZM117.097 68.7634C116.719 68.7957 116.364 68.5975 116.162 68.2842C116.106 68.063 116.378 67.9433 116.558 67.9525C123.059 68.017 129.593 67.7866 136.076 68.0354C136.131 68.0769 136.163 68.123 136.186 68.1736C136.297 68.4224 136.099 68.6989 135.831 68.7081C129.602 68.8924 123.336 68.6897 117.097 68.7634ZM116.203 79.1535C115.512 78.0615 114.802 76.9787 113.978 75.9743C113.448 75.2094 112.609 74.4077 112.752 73.4032C113.6 73.6336 114.213 74.3386 114.733 75.0113C115.65 76.1816 116.355 77.633 116.203 79.1535ZM112.559 72.4264C112.259 72.3112 112.079 72.0394 111.895 71.7906C111.057 70.482 109.969 69.3854 108.79 68.3902C109.909 68.404 111.149 68.616 111.987 69.4269C112.158 69.6066 112.416 69.602 112.642 69.6388C113.54 70.8598 114.291 72.2283 114.784 73.6613C114.111 73.1222 113.36 72.7305 112.559 72.4218V72.4264ZM105.15 63.6029C105.007 63.308 104.845 63.0224 104.693 62.7321C105.878 63.5154 107.172 64.1328 108.274 65.0405C109.352 65.9251 110.356 66.9065 111.245 67.9801C110.559 67.6576 109.481 67.9801 109.269 67.0586C108.568 65.3031 107.112 63.7734 105.15 63.6029ZM108.684 67.5885C106.182 67.3489 103.864 65.9344 102.178 64.1144C103.21 63.7504 104.205 64.2111 105.219 64.4046C106.97 64.5429 108.02 66.1233 108.688 67.5885H108.684ZM99.6988 60.9674C100.625 61.1793 101.505 61.5664 102.353 61.9857C102.896 62.3358 103.495 62.6768 103.873 63.2067C102.592 62.2575 101.196 61.5203 99.6988 60.9674ZM95.1143 62.2667C96.7961 61.5203 98.9386 61.4143 100.634 62.1838C101.233 62.4787 101.864 62.7459 102.376 63.1882C99.9569 64.1881 97.0956 64.1835 95.1189 62.2667H95.1143ZM115.885 73.5368C115.037 72.6752 114.789 71.3529 114.07 70.3807C110.716 64.8285 105.532 61.8474 99.45 60.0966C99.7726 60.115 100.081 60.1979 100.385 60.2901C107.163 62.1147 113.577 66.69 115.885 73.5415V73.5368ZM94.9346 40.8415C94.6628 40.3255 94.1421 39.9522 93.5431 39.9707C91.055 39.9476 88.5669 39.9568 86.0788 39.9661C85.4338 39.9338 84.7426 40.3301 84.5676 40.9751C84.4293 41.7538 84.3049 42.5371 84.1897 43.3204C83.8442 45.6979 83.5815 48.0846 83.3005 50.4667C83.1669 51.6094 83.0471 52.7613 82.8628 53.8994C82.7936 54.3279 82.7936 54.7195 83.024 55.1065C83.1484 55.3185 83.6276 55.876 83.9133 55.8069C83.0885 56.005 82.3651 56.4658 81.5865 56.7791C82.0288 51.7568 82.7107 46.7392 83.3051 41.7262C83.342 40.1181 84.5998 39.4224 86.0835 39.5376C88.9724 39.5928 91.866 39.4638 94.7503 39.5882C94.8885 39.9937 94.907 40.4222 94.9346 40.8461V40.8415ZM83.7105 54.5076C83.6506 53.5123 83.881 52.4019 83.9916 51.4067C84.1114 50.3101 84.2542 49.2135 84.4017 48.1169C84.7012 45.9283 85.0237 43.7397 85.2587 41.5419C85.2771 40.9106 85.8577 40.6894 86.406 40.7724C88.7512 40.8 91.0919 40.8 93.4371 40.7862C93.8057 40.7494 94.225 40.9982 94.1836 41.4082C93.9854 45.1542 93.5938 48.8955 93.3496 52.6415C93.3035 53.047 93.4141 53.6091 92.9902 53.8487C91.4835 54.1436 88.2075 53.1668 87.498 54.7333C86.7377 54.5997 83.8073 56.0511 83.7152 54.5122L83.7105 54.5076ZM94.9622 42.9103C94.8378 46.9604 94.7365 51.0104 94.7042 55.0605C92.9441 55.0559 91.1886 55.042 89.4285 55.0374C89.1291 55.019 88.7697 55.0651 88.5531 54.8025C89.9216 54.3325 92.9073 55.2402 93.8334 54.2357C94.1421 53.8487 94.1237 53.3326 94.1697 52.8673C94.3817 49.5452 94.6351 46.2278 94.953 42.9149L94.9622 42.9103ZM108.121 56.2861C108.403 56.2907 108.762 56.0419 108.61 55.7286C108.495 55.3922 108.089 55.4705 107.808 55.4383C105.721 55.4521 103.634 55.4245 101.551 55.4199C102.238 54.678 101.454 53.7151 100.57 53.7934C99.45 53.7565 98.3258 53.821 97.2061 53.8026C96.8928 53.8256 96.621 53.5584 96.6072 53.2497C96.4874 49.1213 96.4966 44.9883 96.5058 40.8599C96.5196 39.7034 97.8189 39.4961 98.7312 39.5928C100.602 39.6251 102.477 39.6113 104.348 39.6113C105.937 39.4408 106.656 40.5512 106.744 42.0026C107.633 47.716 108.527 53.4248 109.439 59.1336C109.559 59.5298 109.232 59.8708 108.877 59.9768C104.141 57.5716 98.9156 55.9221 93.5385 56.2631C90.9537 56.3921 88.3596 56.7514 85.8761 57.4933C84.6229 57.8665 83.3972 58.3365 82.2315 58.9308C81.6648 59.2211 79.4255 60.0919 79.9554 60.9075C80.0337 61.0319 80.4899 61.4235 80.6557 61.3775C80.3562 61.4604 79.9554 61.6769 79.6927 61.3959C79.2781 60.9121 78.9555 60.3546 78.6791 59.7832C80.0614 58.6544 81.5911 57.7052 83.2037 56.9358C84.6781 56.2308 86.2954 55.4475 87.9726 55.6456C88.355 55.6917 88.7374 55.724 89.1198 55.7516C90.6265 55.8576 92.1286 55.8484 93.6445 55.8898C98.4686 56.0142 103.297 56.1709 108.121 56.2815V56.2861ZM100.56 54.6089C100.712 54.6228 100.92 54.6274 100.971 54.8071C100.593 55.4337 96.5749 54.9821 95.6027 55.0789C95.5843 51.9596 95.6119 48.8402 95.6902 45.7255C95.7547 48.209 95.7087 50.6971 95.7686 53.1852C95.8561 55.4613 99.0722 54.3463 100.556 54.6135L100.56 54.6089ZM82.5587 37.6899C82.5863 37.6577 82.6462 37.5886 82.6785 37.5563C92.4004 37.4964 102.141 37.4688 111.863 37.5563C102.228 37.9802 92.2898 37.6208 82.5587 37.6945V37.6899ZM82.918 36.6624C82.9825 36.1648 83.4249 35.8146 83.9179 35.8146C92.852 35.8607 101.791 35.8285 110.725 35.8607C111.434 35.8146 112.176 35.9989 112.476 36.7131C102.625 36.5933 92.7644 36.773 82.918 36.6624ZM113.729 37.1324C113.37 36.6394 113.088 36.0358 112.623 35.6257C111.84 34.9392 110.54 35.1097 109.568 35.0728C108.384 35.0313 107.205 35.0129 106.02 35.0083C103.652 34.9991 101.288 35.0452 98.9202 35.0498C94.3955 35.059 89.8386 35.2203 85.3232 35.0406C84.222 34.9945 82.9826 34.8563 82.2546 35.8745C82.4665 35.0774 83.2728 34.824 84.0193 34.8332C85.8116 34.8563 87.6132 34.7319 89.4009 34.7042C91.1979 34.6766 92.9902 34.6627 94.7872 34.6627C99.3763 34.6627 103.961 34.7088 108.55 34.8655C109.808 34.9069 111.402 34.6812 112.577 35.211C112.95 35.3815 113.264 35.6442 113.457 36.0542C113.545 36.2385 113.604 36.4367 113.651 36.6348C113.678 36.75 113.664 37.0449 113.729 37.137V37.1324ZM108.439 38.8833C108.439 38.7589 108.439 38.6391 108.449 38.5147C109.642 38.4732 110.835 38.4824 112.029 38.487C112.6 38.487 113.181 38.1092 113.245 37.5102C113.388 37.7498 113.572 37.9664 113.724 38.1968C113.932 38.5009 113.881 38.6898 113.706 38.8003C113.328 39.0445 112.356 38.9432 112.061 38.9432C110.854 38.9524 109.647 38.8971 108.435 38.8741L108.439 38.8833ZM111.015 61.1148C111.121 61.806 111.674 62.663 110.946 63.1836C104.035 57.4057 93.9716 55.6364 85.5628 58.9539C84.1897 59.4008 82.9134 60.0966 81.6187 60.7278C81.3238 60.8891 81.0197 60.6955 80.7341 60.608C89.4424 55.6318 100.777 55.876 109.25 61.253C109.697 61.5387 110.08 61.958 110.614 62.0824C110.955 62.0916 110.904 61.6585 110.775 61.4604C110.504 61.1287 110.112 60.9305 109.803 60.6356C110.158 60.0827 110.379 59.4884 110.209 58.8295C109.319 53.1668 108.412 47.5133 107.546 41.8459C107.412 40.8876 107.135 39.8186 106.265 39.2657C105.426 38.6529 104.343 38.8096 103.366 38.7773C101.528 38.8142 99.685 38.7497 97.8512 38.8096C96.9942 38.8418 96.1925 39.3348 95.8193 40.1181C95.8745 39.5836 95.8193 39.0492 95.8423 38.5193C99.7357 38.4732 103.629 38.4778 107.522 38.5331C108.158 44.6612 109.227 50.757 110.209 56.839C110.416 58.2766 110.762 59.6865 111.001 61.1148H111.015ZM114.176 49.2641C113.793 49.8217 113.333 50.3193 112.876 50.8123C113.254 50.2548 113.683 49.7249 114.176 49.2641ZM115.328 54.3417C114.867 54.9315 114.254 55.3738 113.724 55.899C113.512 56.111 113.158 56.4059 113.065 56.6962C112.955 57.0279 113.13 57.4472 113.181 57.7743C113.254 58.2259 113.328 58.6774 113.406 59.1336C113.558 60.0367 113.71 60.9443 113.863 61.8474C114.167 63.6536 114.462 65.4644 114.72 67.2798C113.715 66.0173 112.683 64.8055 111.526 63.6766C112.623 63.0039 111.978 61.8382 111.803 60.843C111.393 58.7143 111.001 56.5764 110.646 54.4384C111.646 54.89 112.614 52.9917 113.342 52.4203C114.074 52.9779 114.692 53.6736 115.323 54.3417H115.328ZM143.25 56.3598C143.259 56.7699 143.259 57.1846 143.217 57.5946C142.853 57.5946 142.489 57.5992 142.125 57.5992C137.264 57.6223 132.403 57.5808 127.542 57.5624C125.114 57.5532 122.681 57.5532 120.253 57.567C119.037 57.5762 117.825 57.59 116.609 57.6085C115.908 57.6177 114.48 57.3458 114.512 58.4102C114.526 58.8157 114.586 59.2165 114.655 59.6174C114.941 61.1932 115.166 62.7643 115.383 64.354C115.489 65.1418 115.65 66.0081 116.212 66.6117C116.613 66.9296 117.162 66.8835 117.641 66.9019C125.248 66.8743 132.855 66.9757 140.457 66.8328C140.043 66.925 139.564 66.8835 139.236 67.206C138.195 67.9755 136.794 70.3069 135.587 70.4037C133.283 70.5097 130.975 70.4037 128.671 70.4406C127.524 70.6433 125.087 69.8047 124.99 71.5464C125.119 73.7534 124.372 75.3799 127.418 74.9422C127.533 75.3384 127.69 75.7254 127.939 76.0618C128.413 76.1263 128.892 76.1355 129.372 76.1493C129.372 76.2968 129.381 76.4442 129.381 76.5917C128.8 76.5871 128.211 76.6838 127.639 76.5825C127.307 76.2645 127.307 75.6517 126.86 75.4306C124.409 75.2555 121.93 75.3937 119.475 75.343C118.613 75.3246 118.101 75.8729 117.972 76.693C117.816 77.6791 117.811 78.9001 118.019 79.8769C118.166 80.5726 118.876 80.6832 119.507 80.674C124.856 80.6141 130.215 80.568 135.564 80.5818C135.997 80.591 136.2 79.8538 135.739 79.7202C135.122 79.5405 134.477 79.4668 133.846 79.37C131.362 78.983 128.879 78.6006 126.414 78.1076C126.423 78.0569 126.437 77.9509 126.446 77.8956C130.777 78.4117 135.094 79.2088 139.365 80.098C139.223 80.4482 139.107 80.8168 138.854 81.1025C132.496 80.6095 125.916 81.1347 119.488 80.9366C118.751 80.8399 118.152 81.1808 117.664 81.7107C117.926 79.6972 117.037 76.5318 118.318 74.9514C119.645 74.9007 120.967 74.9744 122.294 74.9422C123.847 75.1357 124.469 74.3939 124.488 72.8964C124.557 72.1592 124.497 71.316 125.027 70.7262C125.838 69.7448 131.634 70.4682 133.32 70.2747C134.551 70.2931 135.937 70.3576 136.753 69.261C137.509 68.4224 136.813 67.0909 135.707 67.1369C129.008 67.1922 122.285 66.9895 115.6 67.2199C115.079 63.8702 114.415 60.5389 113.936 57.18C113.798 56.6547 115.553 55.4982 115.95 55.0144C116.825 55.7055 117.553 56.5671 118.355 57.3366C126.639 57.9356 134.956 56.5211 143.25 56.3644V56.3598ZM143.346 71.4773C143.328 72.6568 143.526 73.8962 143.277 75.0435C143.153 75.2693 142.84 75.2232 142.618 75.2509C138.481 75.2324 134.343 75.2232 130.206 75.2463C130.219 73.9653 130.155 72.6798 130.252 71.4035C133.108 71.2883 135.974 71.3851 138.831 71.4312C140.338 71.445 141.844 71.4634 143.351 71.4773H143.346ZM138.366 70.6341C139.928 70.6064 141.508 70.6203 143.065 70.7354C141.499 70.7631 139.932 70.7078 138.366 70.6341ZM138.02 69.7909C140.167 69.7033 142.319 69.7586 144.466 69.7448C144.466 71.5372 144.484 73.3341 144.484 75.1265C144.489 75.9236 143.761 76.6424 142.95 76.5686C138.688 76.6101 134.426 76.6285 130.169 76.5917C130.192 76.4396 130.206 76.2922 130.247 76.1447C134.329 76.0111 138.425 76.1586 142.508 76.1079C142.899 76.0895 143.351 76.1263 143.669 75.8545C144.687 75.0021 144.042 72.6107 144.217 71.339C144.319 70.3761 143.65 69.8139 142.72 69.9015C141.162 69.8231 139.568 69.9982 138.025 69.7955L138.02 69.7909ZM118.885 77.8864C118.922 77.163 118.535 75.9973 119.691 76.1632C121.571 76.2139 123.451 76.1401 125.331 76.1862C125.289 76.3659 125.257 76.5502 125.174 76.7207C123.331 76.7668 121.447 76.7207 119.585 76.7115C119.147 76.6608 119.263 77.2367 119.286 77.5086C121.207 77.6744 123.147 77.527 125.073 77.5639C125.059 77.6422 125.031 77.7942 125.017 77.8726C122.976 77.9509 120.926 77.8956 118.88 77.8864H118.885ZM124.566 79.6281C124.806 79.6419 125.11 79.582 125.257 79.8216C123.405 79.8769 121.548 79.8538 119.696 79.8584C119.424 79.8308 119.069 79.9322 118.894 79.6603C120.783 79.6096 122.677 79.6557 124.571 79.6327L124.566 79.6281ZM129.33 75.3108C129.164 75.3015 128.994 75.2969 128.823 75.2877C128.74 73.9838 128.736 72.6706 128.823 71.3667C128.98 71.3667 129.141 71.3667 129.298 71.3667C129.376 72.6798 129.372 74.0022 129.335 75.3154L129.33 75.3108ZM127.146 74.122C126.736 74.1589 126.321 74.1266 125.911 74.0805C125.861 73.1775 125.879 72.2744 125.898 71.3713C126.538 71.2976 127.178 71.339 127.819 71.3713C127.671 72.302 127.565 73.2696 127.146 74.1266V74.122ZM142.402 52.3236C142.374 52.812 142.701 53.1944 143.024 53.5215C142.167 53.4248 142.089 52.471 142.112 51.7845C142.112 49.2918 142.107 46.8037 142.112 44.311C142.089 43.8871 142.259 43.3664 142.738 43.3019C142.531 43.6383 142.37 44.0115 142.388 44.417C142.388 47.0525 142.379 49.688 142.402 52.3236ZM145.153 44.1221C144.908 44.1543 143.466 44.3386 143.402 44.0714C143.388 44.0161 143.402 43.97 143.443 43.9378C143.706 43.7351 144.977 44.0299 145.153 44.1175V44.1221ZM144.729 35.6902C144.452 36.2616 144.563 36.9711 144.567 37.5886C144.577 39.2058 144.6 40.8185 144.544 42.4357C144.406 42.4357 144.268 42.4265 144.125 42.4265C144.144 42.4265 144.061 39.0952 144.056 38.7911C144.051 38.1783 144.056 37.5655 144.102 36.9573C144.134 36.4873 144.107 35.8607 144.355 35.446C144.494 35.2156 144.706 35.0314 144.918 34.8747C145.341 34.5706 145.922 34.4324 146.318 34.096C146.152 34.2388 145.977 34.3725 145.807 34.5107C145.392 34.8424 144.959 35.2018 144.724 35.6902H144.729ZM145.286 51.9918C145.249 52.3927 144.945 52.7244 144.544 52.7797C144.531 52.7797 144.517 52.7797 144.498 52.7843C143.853 52.8673 143.282 52.365 143.259 51.7108C143.176 49.4761 143.227 47.223 143.259 44.9883C143.945 44.9699 144.632 44.9699 145.323 44.9791C145.277 47.2967 145.489 49.688 145.282 51.9918H145.286ZM144.378 54.4615C144.471 55.4752 144.438 56.498 144.397 57.5117C144.337 57.5163 144.217 57.5301 144.157 57.5347C144.236 56.9127 144.378 54.4569 144.378 54.4569V54.4615ZM159.312 63.9577C157.252 63.6536 155.1 63.9439 153.008 63.8379C153.008 63.52 153.013 63.2067 153.022 62.8933C153.055 62.8242 153.912 62.8841 153.99 62.8841C155.16 62.8841 156.358 62.9072 157.51 62.9118C157.934 62.9118 158.404 62.9763 158.754 62.6814C159.367 62.17 159.16 61.0457 159.15 60.3454C159.141 59.5482 158.989 58.8156 158.386 58.2581C156.87 56.8482 148.111 57.9448 145.3 57.5808C145.282 57.1615 145.286 56.7468 145.3 56.3276C149.106 56.3598 152.972 56.0511 156.745 56.6593C160.404 57.3228 159.478 61.2485 159.302 63.9531L159.312 63.9577ZM158.459 74.1312C158.372 74.8316 156.957 74.9053 156.556 75.8913C155.395 75.5964 154.206 75.4352 153.032 75.2002C152.985 74.7256 152.995 74.251 153.004 73.781C154.133 73.5783 155.381 73.8225 156.529 73.7903C156.98 73.7764 157.763 73.8271 158.118 73.5C158.487 73.1636 158.468 72.4771 158.491 72.021C158.519 71.4865 158.413 70.8138 157.75 70.7907C156.45 70.7999 155.151 70.7539 153.856 70.8184C152.972 70.9105 152.898 72.4403 153.759 72.6246C154.99 72.6384 156.22 72.56 157.446 72.6199C157.469 72.9609 157.118 72.901 156.883 72.9148C155.584 72.9148 154.289 72.924 152.99 72.9471C152.981 70.1871 153.004 67.4226 153.008 64.6627C155.082 64.6627 157.16 64.6534 159.233 64.6719C159.035 67.8281 158.851 70.9935 158.459 74.1358V74.1312ZM154.008 71.7215C155.073 71.4911 156.275 71.7261 157.381 71.6293C157.381 71.6477 157.39 71.6846 157.39 71.703C156.261 71.7215 155.133 71.7445 154.004 71.7215H154.008ZM164.859 86.3874C163.753 82.0701 161.864 79.2318 158.284 76.6193C158.335 76.5825 158.441 76.5087 158.491 76.4719C159.054 76.6746 159.551 77.0202 160.035 77.3657C162.781 79.5359 164.702 82.858 164.855 86.3828L164.859 86.3874ZM155.828 101.712C160.966 99.4637 164.375 95.3767 165.03 89.7186C164.795 95.0312 161.104 100.404 155.828 101.712ZM144.503 100.569C139.094 97.9017 137.283 90.6862 139.001 85.2217C140.559 80.1165 146.678 77.8956 151.599 78.49C153.161 78.6374 154.644 79.195 156.013 79.946C156.685 80.3146 157.33 80.7339 157.962 81.1716C158.155 81.3052 158.538 81.7015 158.8 81.6324C159.16 81.5356 159.017 81.1209 158.86 80.9228C158.625 80.6187 158.266 80.439 157.962 80.2086C153.428 76.7668 147.009 76.8912 142.236 79.7755C145.95 75.8545 152.257 75.9144 156.708 78.5407C159.717 80.3146 162.021 83.0653 162.615 86.5717C163.136 89.6541 162.316 92.8794 160.574 95.4505C158.796 98.0722 156.04 100.003 152.893 100.537C151.783 100.726 150.645 100.74 149.525 100.597C148.922 100.519 148.323 100.394 147.733 100.233C147.415 100.146 147.097 100.044 146.788 99.9336C146.609 99.8691 145.996 99.6249 146.341 99.4314C146.41 99.39 146.945 99.542 147.042 99.5512C147.378 99.5881 147.719 99.6342 148.055 99.6802C149.373 99.8553 150.705 100.058 152.032 99.8737C157.598 99.5604 161.62 94.0406 160.892 88.6405C160.385 83.0146 154.764 78.6651 149.189 79.5636C147.516 79.84 145.673 80.3791 144.706 81.8627C140.259 84.8945 139.504 92.7182 144.065 95.9527C144.927 96.4641 145.765 97.0355 146.696 97.4225C150.603 99.0306 155.128 98.1183 157.865 94.7732C158.519 93.9714 159.054 93.0407 159.367 92.0501C159.551 91.4695 159.252 91.0088 158.763 91.5893C158.441 91.9717 158.326 92.5661 158.086 93.0085C157.141 94.7686 155.547 96.1232 153.695 96.8466C150.93 97.9293 147.714 97.5607 145.351 95.7361C145.318 94.9759 144.724 94.4368 144.355 93.824C142.379 90.6448 142.812 85.9266 145.982 83.6781C141.669 88.1106 143.259 95.6486 149.779 96.4549C160.201 97.2106 162.486 82.7197 151.806 81.0748C144.213 80.3192 139.55 89.0874 144.213 95.0634C140.393 92.0224 141.291 85.0742 145.222 82.4617C145.977 82.5078 146.549 81.9457 147.221 81.7061C148.981 80.8951 150.972 80.697 152.889 80.8859C158.989 81.5402 161.892 89.3224 159.044 94.3769C156.648 99.3347 151.165 99.6664 146.387 98.685C145.434 98.579 144.77 99.6848 145.682 100.279C153.52 104.338 163.523 97.745 163.551 89.0828C163.979 76.8681 146.986 70.9843 139.909 81.0887C140.052 80.3054 142.079 77.7804 140.665 77.5777C137.2 77.5685 133.735 77.4763 130.275 77.4533C134.495 77.4072 138.72 77.4441 142.941 77.3703C144.392 77.4533 145.498 76.1033 145.328 74.698C145.3 72.5693 145.365 70.4452 145.268 68.3165C145.309 67.4502 145.457 66.068 144.263 66.068C142.383 66.068 140.508 66.068 138.628 66.068C135.38 66.068 132.132 66.0726 128.883 66.0818C124.985 66.091 121.087 66.0956 117.194 66.0818C116.65 66.0818 116.424 65.575 116.355 65.1142C116.249 64.4 116.217 63.672 116.111 62.9579C115.885 61.4512 115.572 59.9537 115.383 58.4378C125.285 58.4194 135.186 58.4102 145.088 58.4378C148.797 58.4378 152.506 58.4286 156.22 58.4378C156.745 58.4655 157.34 58.4148 157.768 58.7696C158.418 59.3732 158.519 60.7877 158.201 61.5756C157.897 62.3266 156.856 62.1008 156.234 62.087C155.349 62.0686 154.437 62.0778 153.566 62.0778C151.792 62.0778 150.014 62.0778 148.24 62.0732C143.374 62.0686 138.504 62.064 133.638 62.0594C128.773 62.0594 123.907 62.0594 119.037 62.0732C118.853 62.0502 118.47 62.0179 118.604 61.7461C118.705 61.442 119.106 61.5295 119.355 61.5019C124.133 61.4466 128.915 61.5664 133.694 61.571C135.546 61.571 137.403 61.5525 139.255 61.5111C139.812 61.4972 140.37 61.4834 140.927 61.465C141.213 61.4558 141.932 61.5433 142.029 61.1333C142.093 60.8522 141.734 60.6817 141.508 60.6817C139.674 60.7048 137.836 60.6909 136.002 60.6817C130.344 60.6633 124.681 60.7048 119.023 60.6725C118.562 60.6587 118.078 60.8752 117.848 61.2899C117.424 62.2529 118.217 62.7551 119.078 62.8611C119.636 62.9302 120.212 62.8611 120.774 62.8565C121.493 62.8519 122.211 62.8611 122.93 62.8611C127.8 62.8657 132.671 62.8703 137.541 62.8703C138.753 62.8703 152.078 62.8288 152.078 62.8703C152.161 67.0217 152.045 71.187 152.105 75.343C152.082 75.9236 152.737 76.0342 153.184 76.0572C154.819 76.2046 156.344 76.8359 157.823 77.5086C158.75 77.9279 159.505 78.6144 160.238 79.3055C168.476 87.6084 162.721 101.556 151.018 101.643C148.779 101.703 146.498 101.643 144.48 100.565L144.503 100.569ZM146.014 81.5725C147.724 80.2363 150.133 80.0151 152.23 80.2731C150.069 80.075 147.903 80.4943 146.014 81.5725ZM148.793 82.1668C152.096 81.0011 156.063 82.7981 157.469 85.9773C159.961 91.2023 154.174 97.0723 148.852 95.4781C142.595 93.9438 143.084 84.4107 149.143 83.0146C145.825 84.4706 143.637 88.3133 145.139 91.8243C145.742 93.2481 147.042 94.7916 148.65 94.9759C149.599 94.7778 149.037 93.847 148.539 93.4646C153.022 95.9988 157.565 90.2808 154.128 86.521C148.558 81.8397 142.609 89.2303 148.138 94.0912C145.48 92.6537 144.775 89.0782 146.24 86.5394C146.968 85.2677 148.203 84.3739 149.497 83.738C151.092 83.1529 149.995 82.0194 148.797 82.1668H148.793ZM147.221 91.4649C145.222 87.8157 149.608 84.2172 152.916 86.5486C155.676 88.2534 154.58 92.9163 151.364 93.2435C147.701 93.6489 146.083 87.8019 150.018 86.9495C151.824 86.4887 153.889 88.2903 153.207 90.1564C153.022 90.654 152.704 91.0594 152.23 91.3036C151.907 91.4695 151.451 91.4787 151.184 91.7414C150.792 92.133 151.276 92.6997 151.755 92.497C154.395 91.663 154.985 88.2673 152.631 86.7237C149.451 84.572 145.705 88.0507 147.217 91.4649H147.221ZM100.63 102.385C101.123 102.214 101.611 102.025 102.095 101.841C103.062 101.468 104.016 101.053 104.938 100.588C106.776 99.6526 108.513 98.4961 109.988 97.0401C110.6 96.4365 111.061 95.8006 111.425 95.0312C111.536 94.7962 112.024 93.4784 112.374 93.5199C114.789 93.8931 117.162 88.6174 116.77 86.5763C116.452 85.3046 116.406 85.1986 116.848 83.9361C117.171 84.3278 117.53 84.6872 117.82 85.1065C118.138 85.5718 118.129 85.9589 118.258 86.4841C118.401 87.0739 118.88 86.991 119.364 86.9817C121.023 86.9541 122.691 86.885 124.345 86.9771C124.773 87.0002 125.289 86.7283 125.308 86.2538C125.377 85.1111 125.308 83.9638 125.345 82.8165C129.012 82.7474 132.684 82.8165 136.352 82.8027C136.665 82.8442 136.969 82.5216 136.813 82.2175C136.688 81.895 136.306 81.9318 136.025 81.9318C131.556 81.9457 127.086 81.9318 122.617 81.9318C121.981 81.8812 120.585 82.2175 120.912 83.1483C121.235 84.0744 122.769 83.4017 123.432 83.8394C123.506 83.8855 123.575 83.9454 123.598 84.0329C123.7 84.4245 122.815 84.2725 122.635 84.2679C122.433 84.2587 119.811 84.1297 119.806 84.2495C119.825 83.4155 119.696 82.5861 119.502 81.7752C125.874 81.8074 132.247 81.789 138.619 81.8028C138.485 82.0424 138.356 82.282 138.237 82.5262C136.693 85.6133 136.136 89.2487 136.923 92.6306C138.071 97.5331 142.351 101.44 147.318 102.256C147.636 102.307 147.959 102.353 148.286 102.394H100.639L100.63 102.385ZM138.154 93.93C137.048 91.0917 137.025 87.9033 138.043 85.042C137.435 88 137.37 90.9996 138.154 93.93ZM123.465 85.0373C122.539 85.7101 121.299 85.3783 120.322 84.9959C121.368 85.0466 122.419 85.0604 123.465 85.0373ZM124.451 85.3368C124.446 85.5672 124.432 85.793 124.414 86.0234C124.216 86.0741 124.013 86.1017 123.81 86.1294C124.036 85.8759 124.253 85.6133 124.451 85.3414V85.3368ZM114.236 82.5493C114.766 83.6643 114.835 84.936 114.733 86.1524C114.466 87.59 114.065 89.2579 113.102 90.3867C112.923 88.9907 113.637 87.6406 113.77 86.2584C114.005 85.0327 114.061 83.7841 114.236 82.5539V82.5493ZM113.83 80.0151C113.586 79.3608 113.314 78.7019 113.208 78.0108C113.402 78.1029 113.577 78.2458 113.66 78.4485C113.853 78.9461 113.867 79.4898 113.83 80.0151ZM115.779 85.9174C115.904 86.2307 115.987 86.5671 115.991 86.908C115.982 88.6267 115.254 90.2762 114.18 91.5939C114.443 89.6265 115.203 87.8111 115.784 85.922L115.779 85.9174ZM95.6027 102.182C100.372 101.532 105.025 99.5282 108.638 96.3305C109.554 95.515 110.923 94.4645 111.462 93.3402C110.752 94.8146 109.785 95.9573 108.647 96.9249C107.573 97.8418 106.348 98.6021 105.044 99.3393C103.615 100.15 102.104 100.818 100.537 101.311C98.8971 101.827 97.2845 101.956 95.5981 102.187L95.6027 102.182ZM95.5612 101.339C96.3583 100.505 97.5379 100.302 98.5884 99.9659C100.289 99.519 101.98 98.966 103.495 98.0537C109.084 95.0957 111.526 89.2395 113.314 83.5261C113.01 86.9449 112.351 90.5803 110.347 93.4416C106.689 97.851 101.242 100.708 95.5658 101.339H95.5612ZM87.9449 101.45C86.77 101.127 85.572 100.712 84.6275 99.9152C83.6368 99.0766 83.2544 98.0814 81.9965 97.5423C80.6742 96.9802 79.9416 96.3674 79.361 95.0358C78.8772 94.2433 78.1953 93.6074 77.5134 92.99C76.2186 91.6584 75.486 89.8154 74.8502 88.0922C74.8318 86.7606 74.5968 85.406 73.9748 84.2172C73.7674 83.7887 73.4771 83.3095 73.643 82.8165C75.0345 80.7385 74.9976 78.8356 74.7442 76.435C75.7164 75.4352 76.1219 74.099 76.5227 72.7904C76.9144 71.68 76.5688 70.1779 77.8774 69.6158C78.8035 69.3025 79.5545 70.0074 80.0337 68.6666C80.1858 68.1414 80.0706 67.5885 80.1858 67.0586C80.7801 66.3122 81.5772 65.9297 82.5264 66.1693C84.0147 66.1325 84.48 64.5244 85.1665 63.4923C86.9128 63.1468 89.8524 64.5613 90.2948 62.0225C91.032 61.9212 91.7969 61.806 92.5341 61.9857C94.0085 62.299 95.0636 63.4417 96.4044 64.0499C97.9111 64.7272 99.6528 64.8377 101.238 64.377C102.814 65.9436 104.597 67.2844 106.721 68.0032C108.647 68.9569 110.227 70.6295 111.361 72.4402C111.821 73.1867 111.835 74.1128 112.282 74.8684C113.839 77.6099 117.355 80.1856 115.867 83.6873C113.803 80.4574 114.678 81.8351 114.632 78.6927C114.614 77.3703 112.513 76.412 112.416 78.1444C112.609 79.1857 113.088 80.1579 113.609 81.0702C110.416 88.0507 110.172 93.6305 102.519 97.7082C99.8371 99.2747 96.2662 99.0352 94.1974 101.569C90.4929 99.7079 91.0689 102.661 87.9541 101.45H87.9449ZM85.9775 101.698C84.5169 101.261 83.1576 100.381 82.061 99.3254C82.9411 99.7586 83.7244 100.358 84.563 100.86C85.0375 101.132 85.5259 101.385 85.9775 101.698Z" fill="black"/>
</svg>
