<svg width="32" height="32" viewBox="0 0 32 32" fill="none" xmlns="http://www.w3.org/2000/svg">
<path d="M19.4249 25.0652L19.2549 24.9152C18.7726 24.4855 18.3505 23.9927 17.9999 23.4502C17.617 22.7015 17.3875 21.8838 17.3249 21.0452V18.5752C17.3282 17.258 16.8504 15.9849 15.9813 14.9952C15.1121 14.0054 13.9115 13.3671 12.6049 13.2002V12.5552C12.6049 12.3782 12.5346 12.2084 12.4094 12.0832C12.2842 11.958 12.1144 11.8877 11.9374 11.8877C11.7604 11.8877 11.5906 11.958 11.4654 12.0832C11.3402 12.2084 11.2699 12.3782 11.2699 12.5552V13.2102C9.97503 13.3892 8.78889 14.0313 7.93117 15.0177C7.07345 16.0042 6.60227 17.268 6.6049 18.5752V21.0452C6.54228 21.8838 6.31279 22.7015 5.9299 23.4502C5.58534 23.9914 5.17 24.4841 4.6949 24.9152L4.5249 25.0652V26.4752H19.4249V25.0652Z" fill="#1A141F"/>
<path d="M10.6602 27C10.704 27.3169 10.8611 27.6073 11.1023 27.8175C11.3435 28.0276 11.6527 28.1434 11.9727 28.1434C12.2926 28.1434 12.6018 28.0276 12.843 27.8175C13.0843 27.6073 13.2413 27.3169 13.2852 27H10.6602Z" fill="#1A141F"/>
<circle cx="22" cy="10" r="9" fill="#00B998" stroke="white" stroke-width="2"/>
<g clip-path="url(#clip0_504494_1251)">
<path d="M22.0878 13L24.1078 9.8C24.4178 9.31 24.5778 8.86 24.5878 8.26C24.5878 6.66 23.4278 5.9 21.9478 5.9C20.4578 5.9 19.2978 6.66 19.2978 8.26C19.2978 9.73 20.2978 10.57 21.7378 10.52C21.8678 10.52 22.0178 10.48 22.1278 10.43L20.4578 13H22.0878ZM21.9478 7.17C22.6678 7.17 23.1078 7.55 23.1078 8.26C23.1078 8.98 22.6678 9.38 21.9478 9.38C21.2278 9.38 20.7778 8.98 20.7778 8.26C20.7778 7.55 21.2278 7.17 21.9478 7.17Z" fill="white"/>
</g>
<defs>
<clipPath id="clip0_504494_1251">
<rect width="8" height="10" fill="white" transform="translate(18 5)"/>
</clipPath>
</defs>
</svg>
