<svg width="51" height="50" viewBox="0 0 51 50" fill="none" xmlns="http://www.w3.org/2000/svg">
<g filter="url(#filter0_d_504494_1518)">
<path d="M36.8231 42C36.6141 42 36.4019 41.9924 36.186 41.9791C33.6073 41.8033 31.0255 41.0416 27.8085 39.5108C22.1237 36.7265 17.1697 32.8378 13.0705 27.9464L13.0686 27.9445C9.79083 24.0171 7.39519 20.0022 5.94691 16.0126C5.22498 14.0223 4.51636 11.6334 4.73484 8.99947C4.80956 7.33853 5.51692 5.80959 6.77775 4.62466L9.97828 1.41574C11.8527 -0.464165 14.4232 -0.47305 16.3724 1.39607C16.9714 1.95331 17.5585 2.55689 18.1265 3.14015C18.4102 3.43083 18.6958 3.72469 18.989 4.01854L21.5221 6.55724C23.4624 8.58629 23.4624 11.0831 21.5411 13.0931C20.9806 13.6548 20.4392 14.1816 19.8978 14.7084C19.438 15.1558 18.9783 15.6026 18.5185 16.0596C19.0676 17.2997 19.875 18.5418 21.0997 20.0422C23.6619 23.1654 26.1392 25.4185 28.8927 27.1302L28.9516 27.1689C29.2967 27.4107 29.7204 27.6234 30.1687 27.8474C30.2916 27.909 30.4144 27.9705 30.536 28.0327L33.5364 25.0263C34.4623 24.0984 35.5711 23.6071 36.7426 23.6071C37.9142 23.6071 39.0237 24.0977 39.9495 25.0256L45.1423 30.2306C47.0794 32.1721 47.0794 34.7806 45.1423 36.7227C44.801 37.0648 44.4596 37.3992 44.1215 37.7318C43.4464 38.3938 42.8093 39.0189 42.1944 39.6758C40.8551 41.2117 39.0427 42 36.8231 42ZM15.0108 26.3147C18.8807 30.9319 23.5568 34.6029 28.9079 37.2234C31.8114 38.6051 34.1114 39.2925 36.3538 39.4454C38.0845 39.5578 39.3428 39.0888 40.3181 37.9717C40.9988 37.2431 41.6853 36.5691 42.3496 35.9179C42.682 35.5917 43.0177 35.2636 43.352 34.9272C44.3127 33.9644 44.3127 32.9883 43.352 32.0261L38.1593 26.8218C37.2771 25.9377 36.2094 25.9377 35.3273 26.8218L32.097 30.0592C31.8329 30.3239 31.0293 31.1274 29.7489 30.4876C29.4886 30.3461 29.2619 30.2331 29.0358 30.1195C28.5349 29.8682 28.0181 29.6093 27.5293 29.271C24.544 27.4107 21.878 24.9895 19.141 21.6536C17.637 19.8118 16.6795 18.2822 16.0336 16.6936C15.5624 15.5138 16.1811 14.7655 16.5396 14.4539C17.0709 13.922 17.6022 13.4054 18.1335 12.8881C18.6661 12.3702 19.1986 11.8523 19.7306 11.3186C20.7045 10.2993 20.7045 9.37329 19.7116 8.33433L17.1975 5.81467C16.8973 5.51383 16.6041 5.213 16.3135 4.9147C15.7416 4.32763 15.2015 3.77292 14.6347 3.24551C13.9508 2.58989 12.9128 2.06565 11.7698 3.2125L8.54013 6.44935C7.73019 7.21095 7.31096 8.11473 7.26283 9.16321C7.08172 11.3497 7.66813 13.3273 8.32736 15.1457C9.67431 18.8566 11.923 22.6145 15.0108 26.3147Z" fill="#FFA800"/>
</g>
<defs>
<filter id="filter0_d_504494_1518" x="0.69458" y="0" width="49.9006" height="50" filterUnits="userSpaceOnUse" color-interpolation-filters="sRGB">
<feFlood flood-opacity="0" result="BackgroundImageFix"/>
<feColorMatrix in="SourceAlpha" type="matrix" values="0 0 0 0 0 0 0 0 0 0 0 0 0 0 0 0 0 0 127 0" result="hardAlpha"/>
<feOffset dy="4"/>
<feGaussianBlur stdDeviation="2"/>
<feComposite in2="hardAlpha" operator="out"/>
<feColorMatrix type="matrix" values="0 0 0 0 0 0 0 0 0 0 0 0 0 0 0 0 0 0 0.25 0"/>
<feBlend mode="normal" in2="BackgroundImageFix" result="effect1_dropShadow_504494_1518"/>
<feBlend mode="normal" in="SourceGraphic" in2="effect1_dropShadow_504494_1518" result="shape"/>
</filter>
</defs>
</svg>
