<svg width="57" height="57" viewBox="0 0 57 57" fill="none" xmlns="http://www.w3.org/2000/svg">
<path d="M25.7506 41.9995C29.3562 41.9987 32.8578 40.7918 35.698 38.5708L44.6277 47.5L47.5 44.6279L38.5703 35.6986C40.7926 32.8583 42.0003 29.356 42.0012 25.7497C42.0012 16.79 34.7108 9.5 25.7506 9.5C16.7904 9.5 9.5 16.79 9.5 25.7497C9.5 34.7094 16.7904 41.9995 25.7506 41.9995ZM25.7506 13.5624C32.4723 13.5624 37.9386 19.0284 37.9386 25.7497C37.9386 32.471 32.4723 37.937 25.7506 37.937C19.0289 37.937 13.5627 32.471 13.5627 25.7497C13.5627 19.0284 19.0289 13.5624 25.7506 13.5624Z" fill="#FFA800"/>
<path d="M28.6188 22.8767C29.3886 23.6486 29.8132 24.6682 29.8132 25.7489H33.8758C33.8776 24.6813 33.6678 23.624 33.2585 22.638C32.8491 21.652 32.2484 20.757 31.4911 20.0046C28.4156 16.9334 23.0834 16.9334 20.01 20.0046L22.8782 22.8808C24.422 21.3411 27.0831 21.3452 28.6188 22.8767Z" fill="#FF9500"/>
</svg>
