<svg width="500" height="500" viewBox="0 0 500 500" fill="none" xmlns="http://www.w3.org/2000/svg">
<path d="M466.55 377.37C502.13 293.2 506.63 174.25 445.31 100.37C411.49 59.6004 358.27 46.0504 307.47 43.0004C261.94 40.2804 213.2 41.3704 171.84 62.8904C101.73 99.4104 100 186.17 47.4801 237.37C5.1401 278.64 -12.4199 337.46 23.7301 414.85C59.8801 492.24 127 509.79 193.1 485C259.2 460.21 289.1 455.08 368.67 467.46C405.22 473.15 431.74 445.74 447.78 416.22C454.65 403.58 461 390.6 466.55 377.37Z" fill="#4E944F"/>
<path opacity="0.7" d="M466.55 377.37C502.13 293.2 506.63 174.25 445.31 100.37C411.49 59.6004 358.27 46.0504 307.47 43.0004C261.94 40.2804 213.2 41.3704 171.84 62.8904C101.73 99.4104 100 186.17 47.4801 237.37C5.1401 278.64 -12.4199 337.46 23.7301 414.85C59.8801 492.24 127 509.79 193.1 485C259.2 460.21 289.1 455.08 368.67 467.46C405.22 473.15 431.74 445.74 447.78 416.22C454.65 403.58 461 390.6 466.55 377.37Z" fill="white"/>
<path d="M325.43 51.9994C320.68 30.6494 296.06 14.7294 274.6 17.7794C269.187 18.4139 264.094 20.6811 260 24.2794C254.52 29.2794 255.82 35.0394 253.11 41.2794C252.772 42.1654 252.222 42.9554 251.51 43.5809C250.797 44.2065 249.942 44.6488 249.02 44.8694C243.69 45.7894 239.39 40.4694 234.02 40.4294C230.02 40.4294 224.82 42.6294 222.56 46.1194C220.47 49.3694 221.93 55.0394 218.15 57.1894C213.93 59.6094 208.79 55.0194 204.22 56.6794C198.55 58.7394 201.13 62.8694 199.07 65.4494C197.01 68.0294 192.88 66.9894 187.2 66.4494C181.52 65.9094 176.89 72.6394 176.89 72.6394H355.89C355.89 72.6394 357.43 70.0594 350.73 59.7394C344.03 49.4194 334.73 56.6494 330.61 56.6494C326.49 56.6494 325.43 52.0494 325.43 51.9994Z" stroke="#263238" stroke-miterlimit="10"/>
<path d="M137.51 128.69C134.28 114.18 117.56 103.37 102.98 105.44C99.3129 105.872 95.8619 107.402 93.0801 109.83C89.3601 113.25 90.2401 117.14 88.4001 121.39C88.1673 121.99 87.7931 122.526 87.3091 122.951C86.8251 123.375 86.2457 123.677 85.6201 123.83C82.0001 124.45 79.0801 120.83 75.4001 120.83C72.6601 120.83 69.1501 122.32 67.6201 124.69C66.1901 126.9 67.1901 130.75 64.6201 132.22C61.7501 133.86 58.2601 130.74 55.1601 131.87C51.3001 133.27 53.0601 136.07 51.6501 137.87C50.2401 139.67 47.4501 138.92 43.5901 138.57C39.7301 138.22 36.5901 142.77 36.5901 142.77H158.19C158.19 142.77 159.24 141.02 154.69 134.01C150.14 127 143.82 131.91 141.02 131.91C138.22 131.91 137.52 128.7 137.51 128.69Z" stroke="#263238" stroke-miterlimit="10"/>
<path d="M474.61 195.709C472.47 186.099 461.39 178.929 451.73 180.309C449.301 180.591 447.014 181.602 445.17 183.209C442.71 185.479 443.29 188.059 442.07 190.869C441.919 191.269 441.672 191.625 441.351 191.908C441.031 192.19 440.646 192.39 440.23 192.489C437.83 192.899 435.89 190.489 433.46 190.489C432.462 190.497 431.479 190.731 430.585 191.174C429.691 191.618 428.91 192.259 428.3 193.049C427.36 194.509 428.02 197.049 426.3 198.049C424.39 199.129 422.08 197.049 420.03 197.809C417.47 198.739 418.63 200.599 417.7 201.759C416.77 202.919 414.92 202.459 412.36 202.229C409.8 201.999 407.72 205.009 407.72 205.009H488.29C488.29 205.009 488.99 203.849 485.97 199.209C482.95 194.569 478.77 197.809 476.92 197.809C475.07 197.809 474.62 195.719 474.61 195.709Z" stroke="#263238" stroke-miterlimit="10"/>
<path d="M8.65991 317C8.65991 317 187.55 197.93 200.84 200.15C214.13 202.37 338.55 299.46 338.55 299.46" stroke="#263238" stroke-miterlimit="10"/>
<path d="M158.75 221.199C158.75 221.199 168.75 217.869 168.75 220.639C168.75 223.409 164.87 228.949 168.75 229.499C172.63 230.049 194.23 216.769 194.23 216.769C194.23 216.769 196.44 227.289 200.87 228.399C205.3 229.509 205.87 218.979 205.87 218.979L211.41 223.409V217.319L220.98 220.869L220.82 212.869" stroke="#263238" stroke-miterlimit="10"/>
<path d="M243.17 361.609C243.17 361.609 422.06 242.529 435.35 244.749C448.64 246.969 491.35 281.099 491.35 281.099" stroke="#263238" stroke-miterlimit="10"/>
<path d="M393.26 265.791C393.26 265.791 403.26 262.471 403.26 265.241C403.26 268.011 399.38 273.551 403.26 274.101C407.14 274.651 428.74 261.361 428.74 261.361C428.74 261.361 430.95 271.891 435.38 273.001C439.81 274.111 440.38 263.581 440.38 263.581L445.92 268.011V261.921L455.49 265.471L455.33 257.471" stroke="#263238" stroke-miterlimit="10"/>
<path d="M377.61 321.1L379.13 315C380.66 308.89 379.13 275.7 379.52 273C379.91 270.3 373.79 286.73 373.79 286.73C374.828 282.588 375.593 278.382 376.08 274.14C376.33 270.94 377.21 254.49 377.6 241.52C377.12 236.52 376.6 231.45 376.05 226.43C374.45 230.43 372.27 240.19 372.27 240.19C372.27 240.19 371.12 206.62 372.27 202.8C373.42 198.98 367.27 208.52 367.27 208.52C367.27 208.52 369.17 194.41 369.56 188.69C369.78 185.31 368.56 176.36 367.5 169.04C366.81 165.61 366.1 162.31 365.38 159.18C363.85 162.18 360.49 171.55 360.78 170.37C361.16 168.85 360.78 143.67 360.78 143.67L361.07 143.27C357.57 132.56 353.78 126.09 349.82 126.09C345.86 126.09 342.1 132.5 338.62 143.09L339 143.63C339 143.63 338.62 168.81 339 170.33C339.3 171.54 335.79 161.78 334.3 158.96C333.73 161.43 333.17 164.01 332.62 166.68C331.52 174.31 329.97 184.9 330.22 188.68C330.61 194.4 332.51 208.51 332.51 208.51C332.51 208.51 326.41 198.98 327.51 202.79C328.61 206.6 327.51 240.18 327.51 240.18C327.51 240.18 325.23 229.93 323.62 226.18C323.1 230.91 322.62 235.67 322.15 240.42C322.52 253.55 323.44 270.85 323.7 274.14C324.187 278.382 324.952 282.588 325.99 286.73C325.99 286.73 320 270.36 320.34 273C320.68 275.64 319.2 308.86 320.73 315L322.25 321.1L318.25 317.79C318.99 373.28 332.88 367.65 349.9 367.65C366.92 367.65 380.79 373.28 381.55 317.91L377.61 321.1Z" fill="#4E944F"/>
<path opacity="0.22" d="M377.61 321.1L379.13 315C380.66 308.89 379.13 275.7 379.52 273C379.91 270.3 373.79 286.73 373.79 286.73C374.828 282.588 375.593 278.382 376.08 274.14C376.33 270.94 377.21 254.49 377.6 241.52C377.12 236.52 376.6 231.45 376.05 226.43C374.45 230.43 372.27 240.19 372.27 240.19C372.27 240.19 371.12 206.62 372.27 202.8C373.42 198.98 367.27 208.52 367.27 208.52C367.27 208.52 369.17 194.41 369.56 188.69C369.78 185.31 368.56 176.36 367.5 169.04C366.81 165.61 366.1 162.31 365.38 159.18C363.85 162.18 360.49 171.55 360.78 170.37C361.16 168.85 360.78 143.67 360.78 143.67L361.07 143.27C357.57 132.56 353.78 126.09 349.82 126.09C345.86 126.09 342.1 132.5 338.62 143.09L339 143.63C339 143.63 338.62 168.81 339 170.33C339.3 171.54 335.79 161.78 334.3 158.96C333.73 161.43 333.17 164.01 332.62 166.68C331.52 174.31 329.97 184.9 330.22 188.68C330.61 194.4 332.51 208.51 332.51 208.51C332.51 208.51 326.41 198.98 327.51 202.79C328.61 206.6 327.51 240.18 327.51 240.18C327.51 240.18 325.23 229.93 323.62 226.18C323.1 230.91 322.62 235.67 322.15 240.42C322.52 253.55 323.44 270.85 323.7 274.14C324.187 278.382 324.952 282.588 325.99 286.73C325.99 286.73 320 270.36 320.34 273C320.68 275.64 319.2 308.86 320.73 315L322.25 321.1L318.25 317.79C318.99 373.28 332.88 367.65 349.9 367.65C366.92 367.65 380.79 373.28 381.55 317.91L377.61 321.1Z" fill="white"/>
<path d="M369.18 299.351L350.57 325.991L349.74 272.951L368.8 251.281L349.65 267.481L348.9 219.561L346.92 292.191L331.41 271.501L346.67 301.301L342.69 447.351H352.48L350.76 338.301L369.18 299.351Z" fill="#949494"/>
<path d="M301.87 330.119L303.29 324.449C304.71 318.789 303.29 287.969 303.65 285.449C304.01 282.929 298.33 298.199 298.33 298.199C299.292 294.353 300.003 290.448 300.46 286.509C300.69 283.509 301.51 268.259 301.87 256.209C301.42 251.549 300.94 246.869 300.43 242.209C298.94 245.879 296.92 254.979 296.92 254.979C296.92 254.979 295.85 223.809 296.92 220.269C297.99 216.729 292.31 225.579 292.31 225.579C292.31 225.579 294.08 212.469 294.44 207.159C294.64 204.019 293.5 195.719 292.52 188.919C291.89 185.729 291.23 182.669 290.52 179.759C289.1 182.579 285.97 191.249 286.25 190.149C286.6 188.739 286.25 165.359 286.25 165.359L286.51 164.979C283.27 155.039 279.75 149.039 276.07 149.039C272.39 149.039 268.9 154.989 265.67 164.859L266.02 165.359C266.02 165.359 265.67 188.739 266.02 190.149C266.3 191.269 263.02 182.209 261.66 179.589C261.133 181.889 260.613 184.279 260.1 186.759C259.1 193.849 257.64 203.679 257.87 207.159C258.23 212.469 260 225.579 260 225.579C260 225.579 254.33 216.719 255.39 220.269C256.45 223.819 255.39 254.979 255.39 254.979C255.39 254.979 253.28 245.459 251.78 241.979C251.29 246.379 250.84 250.799 250.41 255.199C250.75 267.399 251.62 283.459 251.85 286.519C252.312 290.468 253.03 294.383 254 298.239C254 298.239 248.33 283.009 248.68 285.489C249.03 287.969 247.62 318.789 249.04 324.489L250.46 330.159L246.7 327.089C247.39 378.619 260.29 373.379 276.09 373.379C291.89 373.379 304.77 378.609 305.48 327.199L301.87 330.119Z" fill="#4E944F"/>
<path opacity="0.22" d="M301.87 330.119L303.29 324.449C304.71 318.789 303.29 287.969 303.65 285.449C304.01 282.929 298.33 298.199 298.33 298.199C299.292 294.353 300.003 290.448 300.46 286.509C300.69 283.509 301.51 268.259 301.87 256.209C301.42 251.549 300.94 246.869 300.43 242.209C298.94 245.879 296.92 254.979 296.92 254.979C296.92 254.979 295.85 223.809 296.92 220.269C297.99 216.729 292.31 225.579 292.31 225.579C292.31 225.579 294.08 212.469 294.44 207.159C294.64 204.019 293.5 195.719 292.52 188.919C291.89 185.729 291.23 182.669 290.52 179.759C289.1 182.579 285.97 191.249 286.25 190.149C286.6 188.739 286.25 165.359 286.25 165.359L286.51 164.979C283.27 155.039 279.75 149.039 276.07 149.039C272.39 149.039 268.9 154.989 265.67 164.859L266.02 165.359C266.02 165.359 265.67 188.739 266.02 190.149C266.3 191.269 263.02 182.209 261.66 179.589C261.133 181.889 260.613 184.279 260.1 186.759C259.1 193.849 257.64 203.679 257.87 207.159C258.23 212.469 260 225.579 260 225.579C260 225.579 254.33 216.719 255.39 220.269C256.45 223.819 255.39 254.979 255.39 254.979C255.39 254.979 253.28 245.459 251.78 241.979C251.29 246.379 250.84 250.799 250.41 255.199C250.75 267.399 251.62 283.459 251.85 286.519C252.312 290.468 253.03 294.383 254 298.239C254 298.239 248.33 283.009 248.68 285.489C249.03 287.969 247.62 318.789 249.04 324.489L250.46 330.159L246.7 327.089C247.39 378.619 260.29 373.379 276.09 373.379C291.89 373.379 304.77 378.609 305.48 327.199L301.87 330.119Z" fill="white"/>
<path d="M294.05 309.93L276.77 334.66L276 285.42L293.69 265.29L275.92 280.33L275.22 235.84L273.38 303.27L258.98 284.07L273.15 311.74L269.45 447.35H278.54L276.95 346.1L294.05 309.93Z" fill="#949494"/>
<path d="M82.16 330.121L83.58 324.451C85 318.791 83.58 287.971 83.93 285.451C84.28 282.931 78.62 298.201 78.62 298.201C79.5818 294.354 80.2933 290.449 80.75 286.511C80.98 283.511 81.75 268.261 82.16 256.211C81.71 251.551 81.23 246.871 80.71 242.211C79.23 245.921 77.2 255.001 77.2 255.001C77.2 255.001 76.14 223.831 77.2 220.291C78.26 216.751 72.6 225.601 72.6 225.601C72.6 225.601 74.37 212.491 74.72 207.181C74.93 204.041 73.79 195.741 72.81 188.941C72.17 185.751 71.52 182.691 70.81 179.781C69.38 182.601 66.26 191.271 66.54 190.171C66.89 188.761 66.54 165.381 66.54 165.381L66.8 165.001C63.56 155.061 60.04 149.061 56.36 149.061C52.68 149.061 49.23 155.001 46 164.901L46.35 165.401C46.35 165.401 46 188.781 46.35 190.191C46.63 191.311 43.35 182.251 41.99 179.631C41.4567 181.931 40.9367 184.321 40.43 186.801C39.43 193.891 37.97 203.721 38.2 207.201C38.56 212.511 40.33 225.621 40.33 225.621C40.33 225.621 34.66 216.761 35.72 220.311C36.78 223.861 35.72 255.021 35.72 255.021C35.72 255.021 33.61 245.501 32.11 242.021C31.62 246.421 31.17 250.841 30.74 255.241C31.08 267.441 31.94 283.501 32.18 286.561C32.6314 290.5 33.3429 294.405 34.31 298.251C34.31 298.251 28.64 283.001 29 285.491C29.36 287.981 27.94 318.791 29.36 324.491L30.77 330.161L27 327.051C27.69 378.581 40.58 373.341 56.39 373.341C72.2 373.341 85.07 378.571 85.78 327.161L82.16 330.121Z" fill="#4E944F"/>
<path opacity="0.22" d="M82.16 330.121L83.58 324.451C85 318.791 83.58 287.971 83.93 285.451C84.28 282.931 78.62 298.201 78.62 298.201C79.5818 294.354 80.2933 290.449 80.75 286.511C80.98 283.511 81.75 268.261 82.16 256.211C81.71 251.551 81.23 246.871 80.71 242.211C79.23 245.921 77.2 255.001 77.2 255.001C77.2 255.001 76.14 223.831 77.2 220.291C78.26 216.751 72.6 225.601 72.6 225.601C72.6 225.601 74.37 212.491 74.72 207.181C74.93 204.041 73.79 195.741 72.81 188.941C72.17 185.751 71.52 182.691 70.81 179.781C69.38 182.601 66.26 191.271 66.54 190.171C66.89 188.761 66.54 165.381 66.54 165.381L66.8 165.001C63.56 155.061 60.04 149.061 56.36 149.061C52.68 149.061 49.23 155.001 46 164.901L46.35 165.401C46.35 165.401 46 188.781 46.35 190.191C46.63 191.311 43.35 182.251 41.99 179.631C41.4567 181.931 40.9367 184.321 40.43 186.801C39.43 193.891 37.97 203.721 38.2 207.201C38.56 212.511 40.33 225.621 40.33 225.621C40.33 225.621 34.66 216.761 35.72 220.311C36.78 223.861 35.72 255.021 35.72 255.021C35.72 255.021 33.61 245.501 32.11 242.021C31.62 246.421 31.17 250.841 30.74 255.241C31.08 267.441 31.94 283.501 32.18 286.561C32.6314 290.5 33.3429 294.405 34.31 298.251C34.31 298.251 28.64 283.001 29 285.491C29.36 287.981 27.94 318.791 29.36 324.491L30.77 330.161L27 327.051C27.69 378.581 40.58 373.341 56.39 373.341C72.2 373.341 85.07 378.571 85.78 327.161L82.16 330.121Z" fill="white"/>
<path d="M74.34 309.93L57.06 334.66L56.29 285.42L73.98 265.29L56.21 280.33L55.51 235.84L53.67 303.27L39.27 284.07L53.44 311.74L49.74 447.35H58.83L57.24 346.1L74.34 309.93Z" fill="#949494"/>
<path d="M158.49 297.9L160.3 290.68C162.1 283.45 160.3 244.16 160.75 241C161.2 237.84 154 257.26 154 257.26C155.228 252.354 156.134 247.374 156.71 242.35C157.01 238.56 158.05 219.09 158.51 203.73C157.95 197.78 157.33 191.81 156.67 185.88C154.78 190.55 152.2 202.16 152.2 202.16C152.2 202.16 150.84 162.42 152.2 157.9C153.56 153.38 146.33 164.68 146.33 164.68C146.33 164.68 148.56 148 149 141.19C149.26 137.19 147.8 126.6 146.56 117.94C145.75 113.87 144.91 109.94 144.06 106.27C142.24 109.86 138.26 120.91 138.61 119.51C139.06 117.71 138.61 87.8998 138.61 87.8998L138.95 87.4198C134.81 74.7498 130.32 67.0898 125.64 67.0898C120.96 67.0898 116.5 74.6898 112.38 87.2698L112.82 87.8998C112.82 87.8998 112.37 117.71 112.82 119.51C113.18 120.94 109.02 109.39 107.27 106.05C106.603 108.983 105.937 112.03 105.27 115.19C103.97 124.19 102.14 136.76 102.44 141.19C102.89 147.97 105.15 164.68 105.15 164.68C105.15 164.68 97.9199 153.38 99.2799 157.9C100.64 162.42 99.2799 202.16 99.2799 202.16C99.2799 202.16 96.5799 190.02 94.6699 185.57C94.0499 191.183 93.4666 196.803 92.9199 202.43C93.3599 217.97 94.4599 238.43 94.7599 242.35C95.3363 247.374 96.2416 252.354 97.4699 257.26C97.4699 257.26 90.2499 237.84 90.7099 241C91.1699 244.16 89.3499 283.45 91.1599 290.68L92.9999 297.9L88.1799 294C89.0599 359.68 105.5 353 125.65 353C145.8 353 162.21 359.67 163.11 294.12L158.49 297.9Z" fill="#4E944F"/>
<path opacity="0.22" d="M158.49 297.9L160.3 290.68C162.1 283.45 160.3 244.16 160.75 241C161.2 237.84 154 257.26 154 257.26C155.228 252.354 156.134 247.374 156.71 242.35C157.01 238.56 158.05 219.09 158.51 203.73C157.95 197.78 157.33 191.81 156.67 185.88C154.78 190.55 152.2 202.16 152.2 202.16C152.2 202.16 150.84 162.42 152.2 157.9C153.56 153.38 146.33 164.68 146.33 164.68C146.33 164.68 148.56 148 149 141.19C149.26 137.19 147.8 126.6 146.56 117.94C145.75 113.87 144.91 109.94 144.06 106.27C142.24 109.86 138.26 120.91 138.61 119.51C139.06 117.71 138.61 87.8998 138.61 87.8998L138.95 87.4198C134.81 74.7498 130.32 67.0898 125.64 67.0898C120.96 67.0898 116.5 74.6898 112.38 87.2698L112.82 87.8998C112.82 87.8998 112.37 117.71 112.82 119.51C113.18 120.94 109.02 109.39 107.27 106.05C106.603 108.983 105.937 112.03 105.27 115.19C103.97 124.19 102.14 136.76 102.44 141.19C102.89 147.97 105.15 164.68 105.15 164.68C105.15 164.68 97.9199 153.38 99.2799 157.9C100.64 162.42 99.2799 202.16 99.2799 202.16C99.2799 202.16 96.5799 190.02 94.6699 185.57C94.0499 191.183 93.4666 196.803 92.9199 202.43C93.3599 217.97 94.4599 238.43 94.7599 242.35C95.3363 247.374 96.2416 252.354 97.4699 257.26C97.4699 257.26 90.2499 237.84 90.7099 241C91.1699 244.16 89.3499 283.45 91.1599 290.68L92.9999 297.9L88.1799 294C89.0599 359.68 105.5 353 125.65 353C145.8 353 162.21 359.67 163.11 294.12L158.49 297.9Z" fill="white"/>
<path d="M148.51 272.159L126.49 303.689L125.5 240.909L148.06 215.259L125.4 234.429L124.51 177.709L122.17 263.679L103.8 239.189L121.87 274.469L117.15 447.349H128.74L126.72 318.269L148.51 272.159Z" fill="#949494"/>
<path d="M386.01 62.5099L394.58 91.9399L400.02 89.6599L396.3 56.6699L386.01 62.5099Z" fill="#263238"/>
<path d="M370 72.2812L388.12 97.0212L392.44 93.0113L377.67 63.2812L370 72.2812Z" fill="#263238"/>
<path d="M358.29 86.9513L383.78 103.991L386.47 98.7513L362.42 75.8613L358.29 86.9513Z" fill="#263238"/>
<path d="M352.31 104.73L382.09 112.03L382.82 106.18L352.4 92.9102L352.31 104.73Z" fill="#263238"/>
<path d="M352.77 123.49L383.25 120.16L381.94 114.42L348.81 112.35L352.77 123.49Z" fill="#263238"/>
<path d="M359.62 140.961L387.12 127.411L383.93 122.461L352.08 131.841L359.62 140.961Z" fill="#263238"/>
<path d="M372.03 155.04L393.24 132.89L388.54 129.33L361.83 149.05L372.03 155.04Z" fill="#263238"/>
<path d="M388.5 164.021L400.86 135.961L395.23 134.221L376.87 161.881L388.5 164.021Z" fill="#263238"/>
<path d="M407.06 166.82L409.07 136.23L403.19 136.52L395.39 168.79L407.06 166.82Z" fill="#263238"/>
<path d="M425.45 163.11L416.88 133.67L411.45 135.96L415.16 168.95L425.45 163.11Z" fill="#263238"/>
<path d="M441.47 153.33L423.34 128.6L419.02 132.61L433.8 162.34L441.47 153.33Z" fill="#263238"/>
<path d="M453.17 138.661L427.68 121.631L424.99 126.871L449.04 149.751L453.17 138.661Z" fill="#263238"/>
<path d="M459.15 120.88L429.37 113.59L428.64 119.43L459.07 132.71L459.15 120.88Z" fill="#263238"/>
<path d="M458.69 102.121L428.21 105.451L429.52 111.201L462.66 113.271L458.69 102.121Z" fill="#263238"/>
<path d="M451.85 84.6504L424.34 98.2104L427.54 103.16L459.38 93.7704L451.85 84.6504Z" fill="#263238"/>
<path d="M439.44 70.5801L418.23 92.7201L422.92 96.2801L449.64 76.5701L439.44 70.5801Z" fill="#263238"/>
<path d="M422.96 61.5996L410.6 89.6596L416.23 91.3996L434.59 63.7396L422.96 61.5996Z" fill="#263238"/>
<path d="M404.4 58.7901L402.39 89.3901L408.28 89.1001L416.07 56.8301L404.4 58.7901Z" fill="#263238"/>
<path d="M422.596 152.304C444.389 142.995 454.51 117.781 445.2 95.9873C435.891 74.1937 410.677 64.0732 388.884 73.3824C367.09 82.6917 356.97 107.905 366.279 129.699C375.588 151.493 400.802 161.613 422.596 152.304Z" stroke="#263238" stroke-miterlimit="10"/>
<path d="M405.73 136.53C418.83 136.53 429.45 125.91 429.45 112.81C429.45 99.7097 418.83 89.0898 405.73 89.0898C392.63 89.0898 382.01 99.7097 382.01 112.81C382.01 125.91 392.63 136.53 405.73 136.53Z" stroke="#263238" stroke-miterlimit="10"/>
<path d="M405.47 119.5L362.01 448.46" stroke="#263238" stroke-miterlimit="10"/>
<path d="M405.47 119.5L448.93 448.46" stroke="#263238" stroke-miterlimit="10"/>
<path d="M405.47 119.5V448.51" stroke="#263238" stroke-width="3" stroke-miterlimit="10"/>
<path d="M398.4 122.72H412.54V115.01L401.61 95.7305H395.83L398.4 114.36V122.72Z" fill="#263238" stroke="#263238" stroke-miterlimit="10"/>
<path d="M336.71 115.65L348.28 127.86L340.56 145.21L292.37 158.7L288.51 118.86L336.71 115.65Z" fill="#C2C2C2" stroke="#263238" stroke-miterlimit="10"/>
<path d="M405.47 129.141H327.07" stroke="#263238" stroke-miterlimit="10"/>
<path d="M384.9 186.98H425.39" stroke="#263238" stroke-width="2" stroke-miterlimit="10"/>
<path d="M393.26 212.68H418.35" stroke="#263238" stroke-miterlimit="10"/>
<path d="M390 241.051H421.61" stroke="#263238" stroke-miterlimit="10"/>
<path d="M384.45 281.801H427.16" stroke="#263238" stroke-miterlimit="10"/>
<path d="M377.28 333.971H434.33" stroke="#263238" stroke-miterlimit="10"/>
<path d="M368.14 395.92H441.83" stroke="#263238" stroke-miterlimit="10"/>
<path d="M27.9001 373.08L26.6901 377.15L24.0501 376C24.0616 375.124 23.7728 374.271 23.2319 373.583C22.691 372.894 21.9306 372.412 21.0773 372.216C20.2241 372.02 19.3294 372.123 18.5424 372.506C17.7555 372.89 17.1236 373.531 16.7522 374.324C16.3807 375.117 16.2921 376.013 16.5011 376.863C16.71 377.713 17.2039 378.466 17.9005 378.997C18.5971 379.527 19.4544 379.803 20.3295 379.778C21.2046 379.753 22.0448 379.429 22.7101 378.86L24.8801 380.06L23.8201 384.89L31.8201 387.89L35.2901 375.66L27.9001 373.08Z" fill="#263238" stroke="#263238" stroke-miterlimit="10"/>
<path d="M51.1001 337.731L76.3101 341.671V403.671H290L291.57 395.531H303.67C305.488 395.53 307.286 395.157 308.955 394.434C310.623 393.712 312.125 392.656 313.37 391.331V388.401L305.49 385.521V382.101H313.63V380.761C313.635 379.76 313.339 378.781 312.781 377.95C312.223 377.12 311.428 376.475 310.5 376.101L296.3 370.291L280.81 365.291H181.59V377.901H154C154 377.901 156.36 371.601 144.28 354.531C132.2 337.461 125.93 332.001 119.63 328.001C113.33 324.001 118.84 323.001 103.09 320.911C93.693 319.645 84.1951 319.293 74.7301 319.861L70.8001 327.211H59.5101L51.1001 337.731Z" fill="#263238" stroke="#263238" stroke-miterlimit="10"/>
<path d="M180.34 317.66C180.34 317.66 195.83 315.79 205.45 316.86C215.07 317.93 228.7 327.55 228.7 327.55C228.7 327.55 264.76 331.82 275.99 337.44C287.22 343.06 287.47 352.44 287.21 357.44C286.95 362.44 281.06 379.35 281.06 379.35C281.06 379.35 232.17 366.79 182.74 367.06L181.14 324.06L180.34 317.66Z" fill="#4E944F" stroke="#263238" stroke-miterlimit="10"/>
<path d="M219.68 327.15C221.55 327.32 223.39 327.52 225.18 327.75" stroke="#263238" stroke-miterlimit="10"/>
<path d="M184.85 326.421C195.518 326.04 206.199 326.203 216.85 326.911" stroke="#263238" stroke-miterlimit="10"/>
<path d="M277.61 344C279.42 344.29 281.05 344.6 282.45 344.94" stroke="#263238" stroke-miterlimit="10"/>
<path d="M192.36 341.001C192.36 341.001 246.78 340.171 273.64 343.481" stroke="#263238" stroke-miterlimit="10"/>
<path d="M123.64 306.68L115.8 305V313.86L123.64 312.13C124.278 312.014 124.855 311.677 125.27 311.179C125.685 310.681 125.913 310.053 125.913 309.405C125.913 308.757 125.685 308.129 125.27 307.631C124.855 307.133 124.278 306.796 123.64 306.68Z" fill="#263238"/>
<path d="M197.43 341.001H192.36V263.001C193.36 252.781 202.62 253.061 202.93 252.941L201.73 257.701L200.84 255.321L201.74 257.701C201.57 257.761 197.43 259.411 197.43 263.001V341.001Z" fill="#263238"/>
<path d="M174.19 316.33L149.34 340.33L159 353.2C162.359 353.881 165.6 355.05 168.62 356.67C174.5 359.61 175.83 367.09 175.83 367.09H182.83V318.47L174.19 316.33Z" fill="#263238" stroke="#263238" stroke-miterlimit="10"/>
<path d="M263.285 448.002C285.687 444.414 300.939 423.344 297.351 400.942C293.763 378.539 272.693 363.288 250.291 366.876C227.888 370.464 212.637 391.534 216.225 413.936C219.813 436.338 240.883 451.59 263.285 448.002Z" fill="#263238" stroke="#263238" stroke-miterlimit="10"/>
<path d="M280.991 419.038C287.419 405.675 281.797 389.631 268.434 383.203C255.071 376.774 239.027 382.396 232.599 395.759C226.17 409.122 231.792 425.166 245.155 431.595C258.518 438.023 274.562 432.401 280.991 419.038Z" fill="white" stroke="#263238" stroke-miterlimit="10"/>
<path d="M278.9 416.745C284.045 404.535 278.318 390.467 266.109 385.322C253.899 380.177 239.83 385.904 234.685 398.113C229.54 410.323 235.267 424.392 247.477 429.536C259.687 434.681 273.755 428.954 278.9 416.745Z" fill="#263238" stroke="#263238" stroke-miterlimit="10"/>
<path d="M276.5 407.441C276.5 403.541 278.62 399.031 276.8 395.881C274.98 392.731 269.9 392.241 266.65 390.361C263.4 388.481 260.65 384.361 256.79 384.361C252.93 384.361 250.09 388.561 246.94 390.361C243.79 392.161 238.67 392.641 236.79 395.891C234.91 399.141 237.08 403.541 237.08 407.441C237.08 411.341 234.97 415.841 236.79 418.991C238.61 422.141 243.69 422.631 246.94 424.511C250.19 426.391 252.94 430.511 256.79 430.511C260.64 430.511 263.5 426.311 266.65 424.511C269.8 422.711 274.92 422.231 276.8 418.991C278.68 415.751 276.5 411.331 276.5 407.441Z" fill="white" stroke="#263238" stroke-miterlimit="10"/>
<path d="M258.184 416.155C262.993 415.377 266.261 410.849 265.483 406.04C264.705 401.231 260.176 397.964 255.367 398.742C250.559 399.52 247.291 404.049 248.069 408.857C248.847 413.666 253.376 416.933 258.184 416.155Z" fill="#263238" stroke="#263238" stroke-miterlimit="10"/>
<path d="M254.38 366.691C254.38 366.691 252.22 368.411 251.9 370.141C251.58 371.871 252.9 371.981 253.41 371.871C253.92 371.761 256 372.081 257.41 371.331C258.82 370.581 261.41 366.901 261.41 366.901C261.41 366.901 256.65 365.931 254.38 366.691Z" fill="#6B6B6B" stroke="#263238" stroke-miterlimit="10"/>
<path d="M243 369.001C243 369.001 241.41 371.271 241.59 373.001C241.77 374.731 243.04 374.491 243.53 374.231C244.02 373.971 246.08 373.711 247.21 372.591C248.34 371.471 249.8 367.211 249.8 367.211C249.8 367.211 245 367.651 243 369.001Z" fill="#6B6B6B" stroke="#263238" stroke-miterlimit="10"/>
<path d="M232.73 374.46C232.73 374.46 231.85 377.08 232.51 378.71C233.17 380.34 234.32 379.71 234.72 379.34C235.12 378.97 237.02 378.12 237.79 376.73C238.56 375.34 238.79 370.84 238.79 370.84C238.79 370.84 234.23 372.6 232.73 374.46Z" fill="#6B6B6B" stroke="#263238" stroke-miterlimit="10"/>
<path d="M224.42 382.57C224.42 382.57 224.31 385.33 225.42 386.71C226.53 388.09 227.42 387.18 227.72 386.71C228.02 386.24 229.58 384.89 229.93 383.34C230.28 381.79 229.2 377.42 229.2 377.42C229.2 377.42 225.33 380.36 224.42 382.57Z" fill="#6B6B6B" stroke="#263238" stroke-miterlimit="10"/>
<path d="M218.72 392.7C218.72 392.7 219.4 395.38 220.84 396.39C222.28 397.4 222.91 396.27 223.04 395.74C223.17 395.21 224.31 393.47 224.2 391.88C224.09 390.29 221.84 386.4 221.84 386.4C221.84 386.4 219 390.32 218.72 392.7Z" fill="#6B6B6B" stroke="#263238" stroke-miterlimit="10"/>
<path d="M216.12 404C216.12 404 217.52 406.39 219.18 407C220.84 407.61 221.18 406.3 221.11 405.75C221.04 405.2 221.69 403.22 221.11 401.75C220.53 400.28 217.3 397.16 217.3 397.16C217.3 397.16 215.69 401.67 216.12 404Z" fill="#6B6B6B" stroke="#263238" stroke-miterlimit="10"/>
<path d="M216.8 415.62C216.8 415.62 218.8 417.51 220.58 417.62C222.36 417.73 222.25 416.39 222.07 415.87C221.89 415.35 221.92 413.28 220.97 412C220.02 410.72 216.02 408.67 216.02 408.67C216.02 408.67 215.73 413.48 216.8 415.62Z" fill="#6B6B6B" stroke="#263238" stroke-miterlimit="10"/>
<path d="M220.73 426.56C220.73 426.56 223.2 427.8 224.9 427.38C226.6 426.96 226.17 425.73 225.85 425.29C225.53 424.85 224.97 422.84 223.7 421.88C222.43 420.92 218.01 420.08 218.01 420.08C218.01 420.08 219.1 424.81 220.73 426.56Z" fill="#6B6B6B" stroke="#263238" stroke-miterlimit="10"/>
<path d="M227.58 435.94C227.58 435.94 230.3 436.44 231.81 435.56C233.32 434.68 232.56 433.62 232.13 433.28C231.7 432.94 230.6 431.18 229.13 430.62C227.66 430.06 223.13 430.5 223.13 430.5C223.13 430.5 225.52 434.72 227.58 435.94Z" fill="#6B6B6B" stroke="#263238" stroke-miterlimit="10"/>
<path d="M236.79 443.001C236.79 443.001 239.54 442.711 240.79 441.441C242.04 440.171 240.96 439.371 240.45 439.161C239.94 438.951 238.39 437.581 236.8 437.461C235.21 437.341 231 439.001 231 439.001C231 439.001 234.47 442.431 236.79 443.001Z" fill="#6B6B6B" stroke="#263238" stroke-miterlimit="10"/>
<path d="M247.63 447.21C247.63 447.21 250.19 446.21 250.98 444.6C251.77 442.99 250.57 442.6 249.98 442.51C249.39 442.42 247.55 441.58 245.98 441.91C244.41 442.24 241 445 241 445C241 445 245.24 447.3 247.63 447.21Z" fill="#6B6B6B" stroke="#263238" stroke-miterlimit="10"/>
<path d="M259.2 448.191C259.2 448.191 261.36 446.461 261.69 444.731C262.02 443.001 260.69 442.891 260.18 443.001C259.67 443.111 257.58 442.791 256.18 443.541C254.78 444.291 252.18 447.971 252.18 447.971C252.18 447.971 256.94 448.941 259.2 448.191Z" fill="#6B6B6B" stroke="#263238" stroke-miterlimit="10"/>
<path d="M270.59 445.861C270.59 445.861 272.17 443.591 272 441.861C271.83 440.131 270.55 440.371 270.06 440.631C269.57 440.891 267.51 441.151 266.38 442.271C265.25 443.391 263.79 447.651 263.79 447.651C263.79 447.651 268.62 447.221 270.59 445.861Z" fill="#6B6B6B" stroke="#263238" stroke-miterlimit="10"/>
<path d="M280.85 440.411C280.85 440.411 281.74 437.791 281.07 436.161C280.4 434.531 279.26 435.161 278.87 435.531C278.48 435.901 276.57 436.751 275.8 438.141C275.03 439.531 274.8 444.031 274.8 444.031C274.8 444.031 279.35 442.281 280.85 440.411Z" fill="#6B6B6B" stroke="#263238" stroke-miterlimit="10"/>
<path d="M289.17 432.301C289.17 432.301 289.28 429.541 288.17 428.161C287.06 426.781 286.17 427.691 285.88 428.161C285.59 428.631 284.02 429.981 283.67 431.531C283.32 433.081 284.4 437.451 284.4 437.451C284.4 437.451 288.26 434.511 289.17 432.301Z" fill="#6B6B6B" stroke="#263238" stroke-miterlimit="10"/>
<path d="M294.86 422.17C294.86 422.17 294.19 419.49 292.75 418.48C291.31 417.47 290.68 418.6 290.55 419.13C290.42 419.66 289.28 421.4 289.38 422.99C289.48 424.58 291.75 428.47 291.75 428.47C291.75 428.47 294.61 424.55 294.86 422.17Z" fill="#6B6B6B" stroke="#263238" stroke-miterlimit="10"/>
<path d="M297.47 410.85C297.47 410.85 296.07 408.47 294.41 407.85C292.75 407.23 292.41 408.55 292.48 409.1C292.55 409.65 291.9 411.63 292.48 413.1C293.06 414.57 296.29 417.69 296.29 417.69C296.29 417.69 297.9 413.2 297.47 410.85Z" fill="#6B6B6B" stroke="#263238" stroke-miterlimit="10"/>
<path d="M296.79 399.251C296.79 399.251 294.79 397.361 293.01 397.251C291.23 397.141 291.33 398.481 291.52 399.001C291.71 399.521 291.67 401.591 292.62 402.871C293.57 404.151 297.57 406.201 297.57 406.201C297.57 406.201 297.86 401.391 296.79 399.251Z" fill="#6B6B6B" stroke="#263238" stroke-miterlimit="10"/>
<path d="M292.86 388.311C292.86 388.311 290.39 387.071 288.69 387.491C286.99 387.911 287.42 389.141 287.74 389.581C288.06 390.021 288.62 392.031 289.89 392.991C291.16 393.951 295.58 394.791 295.58 394.791C295.58 394.791 294.49 390.061 292.86 388.311Z" fill="#6B6B6B" stroke="#263238" stroke-miterlimit="10"/>
<path d="M286 378.931C286 378.931 283.28 378.431 281.76 379.311C280.24 380.191 281.01 381.251 281.45 381.591C281.89 381.931 282.98 383.691 284.45 384.251C285.92 384.811 290.45 384.371 290.45 384.371C290.45 384.371 288.07 380.151 286 378.931Z" fill="#6B6B6B" stroke="#263238" stroke-miterlimit="10"/>
<path d="M276.8 371.85C276.8 371.85 274.05 372.14 272.8 373.42C271.55 374.7 272.62 375.48 273.14 375.69C273.66 375.9 275.2 377.27 276.79 377.39C278.38 377.51 282.55 375.83 282.55 375.83C282.55 375.83 279.11 372.44 276.8 371.85Z" fill="#6B6B6B" stroke="#263238" stroke-miterlimit="10"/>
<path d="M266 367.661C266 367.661 263.44 368.661 262.65 370.271C261.86 371.881 263.06 372.271 263.65 372.361C264.24 372.451 266.07 373.291 267.65 372.961C269.23 372.631 272.74 369.841 272.74 369.841C272.74 369.841 268.35 367.571 266 367.661Z" fill="#6B6B6B" stroke="#263238" stroke-miterlimit="10"/>
<path d="M98.7724 447.038C129.194 439.97 148.125 409.578 141.057 379.157C133.989 348.736 103.598 329.804 73.1766 336.872C42.7552 343.94 23.8236 374.331 30.8917 404.753C37.9597 435.174 68.351 454.106 98.7724 447.038Z" fill="#263238" stroke="#263238" stroke-miterlimit="10"/>
<path d="M91.8399 428.455C111.994 425.216 125.706 406.252 122.467 386.098C119.228 365.945 100.264 352.232 80.1106 355.471C59.9568 358.71 46.2446 377.674 49.4835 397.828C52.7225 417.982 71.6861 431.694 91.8399 428.455Z" fill="white" stroke="#263238" stroke-miterlimit="10"/>
<path d="M93.4461 424.133C111.213 419.996 122.261 402.239 118.123 384.472C113.986 366.706 96.2288 355.658 78.4623 359.795C60.6958 363.933 49.6475 381.69 53.7851 399.456C57.9228 417.223 75.6796 428.271 93.4461 424.133Z" fill="#263238" stroke="#263238" stroke-miterlimit="10"/>
<path d="M85 419.081C90.36 419.271 96.45 422.401 100.87 420.081C105.29 417.761 106.22 410.761 108.96 406.381C111.7 402.001 117.53 398.481 117.72 393.121C117.91 387.761 112.27 383.691 109.91 379.271C107.55 374.851 107.18 367.781 102.8 365.041C98.42 362.301 92.26 365.041 86.9 364.891C81.54 364.741 75.44 361.571 71.02 363.891C66.6 366.211 65.7 373.201 63 377.581C60.3 381.961 54.43 385.481 54.24 390.851C54.05 396.221 59.7 400.281 62.05 404.701C64.4 409.121 64.78 416.181 69.16 418.931C73.54 421.681 79.65 418.891 85 419.081Z" fill="white" stroke="#263238" stroke-miterlimit="10"/>
<path d="M87.5143 404.01C94.1627 403.143 98.8495 397.051 97.9824 390.402C97.1154 383.754 91.0229 379.067 84.3745 379.934C77.7261 380.801 73.0393 386.894 73.9063 393.542C74.7733 400.19 80.8658 404.877 87.5143 404.01Z" fill="#263238" stroke="#263238" stroke-miterlimit="10"/>
<path d="M82.6502 335.86C82.6502 335.86 79.6502 338.24 79.2302 340.62C78.8102 343 80.5702 343.15 81.3102 343C82.0502 342.85 84.8802 343.3 86.8102 342.26C88.7402 341.22 92.3102 336.16 92.3102 336.16C92.3102 336.16 85.7702 334.82 82.6502 335.86Z" fill="#6B6B6B" stroke="#263238" stroke-miterlimit="10"/>
<path d="M67.0002 339.071C67.0002 339.071 64.8002 342.191 65.0002 344.601C65.2002 347.011 67.0002 346.601 67.6702 346.291C68.3402 345.981 71.1702 345.571 72.7302 344.031C74.2902 342.491 76.2902 336.631 76.2902 336.631C76.2902 336.631 69.6802 337.191 67.0002 339.071Z" fill="#6B6B6B" stroke="#263238" stroke-miterlimit="10"/>
<path d="M52.8501 346.56C52.8501 346.56 51.6301 350.17 52.5401 352.41C53.4501 354.65 55.0301 353.82 55.5401 353.29C56.0501 352.76 58.7001 351.61 59.7601 349.69C60.8201 347.77 61.1001 341.59 61.1001 341.59C61.1001 341.59 54.9101 344 52.8501 346.56Z" fill="#6B6B6B" stroke="#263238" stroke-miterlimit="10"/>
<path d="M41.4002 357.731C41.4002 357.731 41.2502 361.541 42.7502 363.431C44.2502 365.321 45.5402 364.081 45.9102 363.431C46.2802 362.781 48.4802 360.931 48.9102 358.781C49.3402 356.631 47.9102 350.631 47.9102 350.631C47.9102 350.631 42.6602 354.691 41.4002 357.731Z" fill="#6B6B6B" stroke="#263238" stroke-miterlimit="10"/>
<path d="M33.5601 371.68C33.5601 371.68 34.4901 375.37 36.4701 376.76C38.4501 378.15 39.3201 376.6 39.4701 375.86C39.6201 375.12 41.2301 372.74 41.0801 370.55C40.9301 368.36 37.8401 363 37.8401 363C37.8401 363 33.9101 368.4 33.5601 371.68Z" fill="#6B6B6B" stroke="#263238" stroke-miterlimit="10"/>
<path d="M30.0001 387.26C30.0001 387.26 31.9301 390.54 34.2201 391.32C36.5101 392.1 36.9101 390.32 36.8701 389.6C36.8301 388.88 37.6701 386.11 36.8701 384.05C36.0701 381.99 31.6201 377.74 31.6201 377.74C31.6201 377.74 29.3801 384 30.0001 387.26Z" fill="#6B6B6B" stroke="#263238" stroke-miterlimit="10"/>
<path d="M30.9101 403.231C30.9101 403.231 33.6901 405.841 36.1101 405.941C38.5301 406.041 38.4201 404.251 38.1701 403.541C37.9201 402.831 38.0001 400.001 36.6501 398.201C35.3001 396.401 29.8301 393.621 29.8301 393.621C29.8301 393.621 29.4401 400.291 30.9101 403.231Z" fill="#6B6B6B" stroke="#263238" stroke-miterlimit="10"/>
<path d="M36.32 418.291C36.32 418.291 39.72 420.001 42.06 419.421C44.4 418.841 43.81 417.151 43.36 416.541C42.91 415.931 42.15 413.171 40.36 411.841C38.57 410.511 32.53 409.371 32.53 409.371C32.53 409.371 34.07 415.881 36.32 418.291Z" fill="#6B6B6B" stroke="#263238" stroke-miterlimit="10"/>
<path d="M45.7401 431.211C45.7401 431.211 49.4901 431.901 51.5801 430.681C53.6701 429.461 52.5801 428.011 52.0101 427.551C51.4401 427.091 49.9001 424.661 47.8501 423.881C45.8001 423.101 39.6401 423.711 39.6401 423.711C39.6401 423.711 42.9101 429.531 45.7401 431.211Z" fill="#6B6B6B" stroke="#263238" stroke-miterlimit="10"/>
<path d="M58.43 441C58.43 441 62.22 440.61 63.88 438.85C65.54 437.09 64.12 436 63.41 435.72C62.7 435.44 60.57 433.54 58.41 433.37C56.25 433.2 50.49 435.53 50.49 435.53C50.49 435.53 55.24 440.14 58.43 441Z" fill="#6B6B6B" stroke="#263238" stroke-miterlimit="10"/>
<path d="M73.3501 446.72C73.3501 446.72 76.8701 445.28 77.9701 443.12C79.0701 440.96 77.4001 440.32 76.6401 440.25C75.8801 440.18 73.3001 438.96 71.1501 439.42C69.0001 439.88 64.1501 443.72 64.1501 443.72C64.1501 443.72 70.0601 446.84 73.3501 446.72Z" fill="#6B6B6B" stroke="#263238" stroke-miterlimit="10"/>
<path d="M89.2901 448.06C89.2901 448.06 92.2901 445.68 92.7101 443.3C93.1301 440.92 91.3701 440.78 90.6201 440.93C89.8701 441.08 87.0601 440.63 85.1201 441.67C83.1801 442.71 79.6201 447.76 79.6201 447.76C79.6201 447.76 86.1601 449.1 89.2901 448.06Z" fill="#6B6B6B" stroke="#263238" stroke-miterlimit="10"/>
<path d="M105 444.851C105 444.851 107.18 441.731 106.94 439.331C106.7 436.931 104.94 437.281 104.27 437.631C103.6 437.981 100.76 438.351 99.2001 439.891C97.6401 441.431 95.6401 447.291 95.6401 447.291C95.6401 447.291 102.26 446.731 105 444.851Z" fill="#6B6B6B" stroke="#263238" stroke-miterlimit="10"/>
<path d="M119.09 437.361C119.09 437.361 120.31 433.751 119.39 431.511C118.47 429.271 116.9 430.111 116.39 430.641C115.88 431.171 113.23 432.311 112.16 434.241C111.09 436.171 110.83 442.341 110.83 442.341C110.83 442.341 117 439.931 119.09 437.361Z" fill="#6B6B6B" stroke="#263238" stroke-miterlimit="10"/>
<path d="M130.54 426.19C130.54 426.19 130.69 422.39 129.18 420.49C127.67 418.59 126.4 419.85 126.02 420.49C125.64 421.13 123.46 422.99 123.02 425.13C122.58 427.27 124.02 433.28 124.02 433.28C124.02 433.28 129.28 429.23 130.54 426.19Z" fill="#6B6B6B" stroke="#263238" stroke-miterlimit="10"/>
<path d="M138.38 412.251C138.38 412.251 137.45 408.561 135.47 407.161C133.49 405.761 132.62 407.331 132.47 408.071C132.32 408.811 130.72 411.191 130.86 413.381C131 415.571 134.12 420.911 134.12 420.911C134.12 420.911 138 415.521 138.38 412.251Z" fill="#6B6B6B" stroke="#263238" stroke-miterlimit="10"/>
<path d="M142 396.66C142 396.66 140.07 393.38 137.78 392.6C135.49 391.82 135.09 393.6 135.13 394.32C135.17 395.04 134.32 397.81 135.13 399.87C135.94 401.93 140.38 406.18 140.38 406.18C140.38 406.18 142.55 399.9 142 396.66Z" fill="#6B6B6B" stroke="#263238" stroke-miterlimit="10"/>
<path d="M141 380.69C141 380.69 138.23 378.09 135.81 377.99C133.39 377.89 133.5 379.67 133.75 380.39C134 381.11 133.96 383.96 135.27 385.72C136.58 387.48 142.09 390.3 142.09 390.3C142.09 390.3 142.5 383.64 141 380.69Z" fill="#6B6B6B" stroke="#263238" stroke-miterlimit="10"/>
<path d="M135.62 365.64C135.62 365.64 132.22 363.92 129.87 364.51C127.52 365.1 128.13 366.77 128.57 367.39C129.01 368.01 129.78 370.76 131.57 372.08C133.36 373.4 139.4 374.55 139.4 374.55C139.4 374.55 137.86 368.05 135.62 365.64Z" fill="#6B6B6B" stroke="#263238" stroke-miterlimit="10"/>
<path d="M126.19 352.72C126.19 352.72 122.45 352.03 120.36 353.25C118.27 354.47 119.36 355.91 119.92 356.38C120.48 356.85 122.04 359.27 124.09 360.05C126.14 360.83 132.3 360.21 132.3 360.21C132.3 360.21 129 354.39 126.19 352.72Z" fill="#6B6B6B" stroke="#263238" stroke-miterlimit="10"/>
<path d="M113.51 343C113.51 343 109.72 343.4 108.06 345.16C106.4 346.92 107.82 348.01 108.52 348.28C109.22 348.55 111.36 350.46 113.52 350.63C115.68 350.8 121.44 348.48 121.44 348.48C121.44 348.48 116.7 343.79 113.51 343Z" fill="#6B6B6B" stroke="#263238" stroke-miterlimit="10"/>
<path d="M98.59 337.201C98.59 337.201 95.0701 338.641 93.9701 340.801C92.8701 342.961 94.5401 343.601 95.3001 343.671C96.0601 343.741 98.63 344.961 100.78 344.511C102.93 344.061 107.78 340.211 107.78 340.211C107.78 340.211 101.88 337.081 98.59 337.201Z" fill="#6B6B6B" stroke="#263238" stroke-miterlimit="10"/>
<path d="M56.62 326.441L44 340.881H51.35C51.35 340.881 60.01 331.171 63.42 330.121C66.83 329.071 100.42 327.231 113.05 333.271C125.68 339.311 132.21 347.711 137.99 358.211C141.709 365.125 144.869 372.324 147.44 379.741L150.59 367.661C150.59 367.661 135.89 339.831 122.5 331.661C109.11 323.491 100.71 324.571 89.42 323.521C78.13 322.471 58.96 323.521 58.96 323.521L56.62 326.441Z" fill="#4E944F" stroke="#263238" stroke-miterlimit="10"/>
<path d="M179.24 382.361H151.93V399.431H179.24V382.361Z" fill="#6B6B6B" stroke="#263238" stroke-miterlimit="10"/>
<path d="M182.38 400.451H157.7V404.131H182.38V400.451Z" fill="#6B6B6B" stroke="#263238" stroke-miterlimit="10"/>
<path d="M163.35 312.34L142.56 323.49C142.416 323.564 142.301 323.685 142.234 323.833C142.167 323.981 142.152 324.147 142.191 324.305C142.231 324.462 142.322 324.602 142.451 324.701C142.579 324.8 142.738 324.852 142.9 324.85H150.21L157.63 336.28L163.56 332.47L157.41 322.09L164.19 313.33C164.288 313.21 164.341 313.06 164.339 312.906C164.338 312.752 164.282 312.603 164.182 312.485C164.083 312.367 163.945 312.288 163.792 312.262C163.64 312.235 163.484 312.263 163.35 312.34Z" fill="#263238" stroke="#263238" stroke-miterlimit="10"/>
<path d="M152.59 367.191H165.8L163.64 350.201H181.98V377.361L154.03 377.901L152.59 367.191Z" fill="#263238" stroke="#263238" stroke-miterlimit="10"/>
<path opacity="0.3" d="M173.21 283.281L124.86 331.621L138.96 341.501L176.29 304.171L173.21 283.281Z" fill="black"/>
<path opacity="0.3" d="M115.8 266.061L73.9001 294.241L78.3501 258.631L114.99 257.941L115.8 266.061Z" fill="black"/>
<path d="M184.83 379.92H152.08L151.76 377.75C148.21 353.75 130.83 337.28 120.76 329.62C107.1 319.19 73.55 321.68 73.21 321.71L70.21 321.94L75.46 259L80.52 259.41L75.81 316.41C84.71 316.01 111.07 315.76 123.86 325.52C141.57 339.02 153.07 356.44 156.43 374.78H179.7C179.52 358.26 178.86 321.9 177.55 315.94C175.83 308.04 167.96 260.62 167.62 258.6L172.62 257.77C172.7 258.26 180.8 307.08 182.51 314.86C184.27 322.95 184.77 375.08 184.79 377.3L184.83 379.92Z" fill="#263238"/>
<path d="M117.37 260.471H111.92V324.121H117.37V260.471Z" fill="#263238"/>
<path d="M123.64 267.801L115.8 266.061V274.931L123.64 273.191C124.254 273.055 124.803 272.714 125.196 272.224C125.59 271.734 125.805 271.124 125.805 270.496C125.805 269.867 125.59 269.257 125.196 268.767C124.803 268.277 124.254 267.936 123.64 267.801Z" fill="#263238"/>
<path d="M176.32 290.35L179.21 291.8C180.664 292.524 181.929 293.579 182.903 294.879C183.877 296.18 184.534 297.69 184.82 299.29C186.09 306.38 188.18 318.94 188.18 325.13C188.18 330.91 188.52 339.67 188.76 345.08C188.827 346.604 188.559 348.125 187.975 349.535C187.392 350.944 186.506 352.209 185.38 353.24L182.52 355.86" stroke="#263238" stroke-width="3" stroke-miterlimit="10"/>
<path d="M176.58 287.65V260.15" stroke="#263238" stroke-width="3" stroke-miterlimit="10"/>
<path d="M177.12 266.361H200.37C201.784 266.361 203.139 266.923 204.139 267.922C205.139 268.922 205.7 270.278 205.7 271.691V273.101" stroke="#263238" stroke-width="3" stroke-miterlimit="10"/>
<path d="M199.23 268.51H200.54C201.218 268.51 201.889 268.643 202.515 268.903C203.141 269.162 203.71 269.542 204.189 270.021C204.668 270.5 205.048 271.069 205.307 271.695C205.567 272.321 205.7 272.992 205.7 273.67V285.45C205.7 286.127 205.567 286.798 205.307 287.424C205.048 288.05 204.668 288.619 204.189 289.098C203.71 289.578 203.141 289.958 202.515 290.217C201.889 290.476 201.218 290.61 200.54 290.61H199.23V268.51Z" fill="#263238" stroke="#263238" stroke-miterlimit="10"/>
<path d="M183.48 262.49V261.19C183.479 259.816 183.207 258.454 182.679 257.185C182.152 255.915 181.38 254.761 180.406 253.79C179.433 252.819 178.278 252.049 177.007 251.524C175.737 250.999 174.375 250.729 173 250.73H84.72C81.9458 250.73 79.2853 251.833 77.3237 253.794C75.362 255.756 74.26 258.416 74.26 261.19V262.49H183.48Z" fill="#4E944F" stroke="#263238" stroke-miterlimit="10"/>
<path d="M8.36011 448.51H493.3" stroke="#263238" stroke-miterlimit="10"/>
</svg>
