<svg width="24" height="24" viewBox="0 0 24 24" fill="none" xmlns="http://www.w3.org/2000/svg">
<path fill-rule="evenodd" clip-rule="evenodd" d="M21.2833 6.51459C20.62 6.80674 19.9172 6.99961 19.1977 7.08699C19.9549 6.63161 20.5218 5.91768 20.7937 5.07699C20.078 5.49355 19.2982 5.78875 18.4861 5.95059C17.94 5.36538 17.2157 4.97702 16.4261 4.84591C15.6364 4.71481 14.8256 4.84831 14.1196 5.22565C13.4137 5.60298 12.8522 6.20301 12.5225 6.93243C12.1928 7.66184 12.1133 8.47976 12.2965 9.25899C10.8532 9.18939 9.44076 8.81648 8.1512 8.16457C6.86164 7.51266 5.7239 6.59636 4.8121 5.47539C4.4965 6.00819 4.3201 6.62739 4.3201 7.30179C4.3201 8.56419 4.9621 9.67419 5.9353 10.3258C5.3589 10.3073 4.79525 10.1514 4.2913 9.87099V9.91659C4.29068 10.7555 4.58039 11.5689 5.11125 12.2185C5.64212 12.8682 6.38143 13.3141 7.2037 13.4806C6.67111 13.6227 6.11343 13.6436 5.5717 13.5418C5.80507 14.2635 6.25778 14.8944 6.86675 15.3465C7.47571 15.7987 8.21057 16.0495 8.9689 16.0642C8.21667 16.6553 7.35537 17.0924 6.43418 17.3506C5.51299 17.6088 4.54997 17.683 3.6001 17.569C5.26533 18.6352 7.20156 19.2012 9.1789 19.1998C15.8629 19.1998 19.5121 13.6666 19.5121 8.87499C19.5121 8.72139 19.5121 8.56539 19.5013 8.41059C20.2147 7.89731 20.8301 7.25998 21.3181 6.52899L21.2821 6.51459H21.2833Z" fill="white"/>
</svg>
